<svg xmlns="http://www.w3.org/2000/svg" viewBox="0 0 153.41 148.75"><title>dog-house-icon</title><g id="Layer_2" data-name="Layer 2"><g id="dog-house-icon"><path d="M153.41,148.75l-5.83-28H130V75.59l8,8,12.87-12.87L76,0,0,71.79l13,11.7,10-9.64v68.9h81.64l-1,6Zm-9.09-24,4.17,20H108.31l.59-3.57,0-.09,3.63-16.34ZM12.9,78l-7-6.3L76,5.5l69.13,65.29L138,77.92l-12-12v.13L76,17ZM57,138.75H27v-10H57Zm0-14H27V70l49-47.44,50,49.12v49.09h-16.6l-.89,4H95v-19c0-.89.26-9.82-5.42-15.81-3.3-3.48-7.87-5.24-13.58-5.24S65.67,86.51,62.37,90c-5.68,6-5.46,14.92-5.42,15.81Zm34-19.11v33.11H61v-33.1c0-.08-.33-8,4.34-12.92,2.52-2.64,6.1-4,10.66-4s8.14,1.34,10.66,4C91.28,97.64,91,105.57,91,105.64Zm4,33.11v-10h12.62l-2.22,10Z"/><path d="M59.75,79.91a12.82,12.82,0,0,1-2.13-.19l-.15,0c-2.92-.73-4.87-2.14-5.81-4.21-1.61-3.53.47-7.6,1.36-9.34l.19-.39c-2.87-4.1-2.39-7.07-1.48-8.85A8.44,8.44,0,0,1,59,52.75c3.54,0,7.47,2.25,8,5.36.49.56,1.91.64,10,.64,5.08,0,7.18-.53,8-.84a4.8,4.8,0,0,1,1-2.64c1.31-1.67,3.67-2.52,7-2.52,7.19,0,7.75,5,7.75,6.5,0,2.13-1.13,6-3.3,6.45a1.65,1.65,0,0,0,.25.15c1.15.3,3.3,1.46,3.3,5.9,0,5.29-5,7.53-7.67,8-.4.07-4,.6-6.39-1.43A5.65,5.65,0,0,1,85,74a2.92,2.92,0,0,0-1-.2H67.14a3.22,3.22,0,0,0-.19,1V75l-.06.23C66.45,77,64.41,79.91,59.75,79.91Zm-1.39-4.12c3.45.55,4.39-.92,4.6-1.39.11-2.3,1.37-4.65,4-4.65H84c2.41,0,5,1.25,5,4a1.76,1.76,0,0,0,.52,1.49,4.74,4.74,0,0,0,3.15.54c.17,0,4.33-.81,4.33-4a4.08,4.08,0,0,0-.35-2h-.12l-.42-.21c-.94-.47-3.11-1.77-3.11-3.79v-1h.26A5.79,5.79,0,0,1,96,61.92a5,5,0,0,0,.49-3.81C96,57,94.28,56.75,93,56.75c-2.82,0-3.66.73-3.85,1a.8.8,0,0,0-.19.64l.1.31-.06.1c0,3.59-6.85,4-12,4-10.61,0-12.24,0-13.79-3.11L63,59.22v-.47c0-.47-1.7-2-4-2a4.53,4.53,0,0,0-3.66,2c-.65,1.27,0,2.92.88,4.25a3,3,0,0,1,.17,5.46c-.69,1.39-1.76,3.81-1,5.39C55.7,74.71,56.73,75.37,58.36,75.79Z"/></g></g></svg>