<svg xmlns="http://www.w3.org/2000/svg" viewBox="0 0 154.01 142.09"><title>feed-icon-nav</title><g id="Layer_2" data-name="Layer 2"><g id="news-icon-nav"><path d="M91.5,58A2,2,0,0,1,90,59.93a1.68,1.68,0,0,1-.5.07h-30a1.68,1.68,0,0,1-.5-.07,2,2,0,0,1,0-3.86,1.68,1.68,0,0,1,.5-.07h30a1.68,1.68,0,0,1,.5.07A2,2,0,0,1,91.5,58Z"/><path d="M59,59.93a1.68,1.68,0,0,0,.5.07H59Z"/><path d="M59,56h.5a1.68,1.68,0,0,0-.5.07Z"/><path d="M90,56v.07a1.68,1.68,0,0,0-.5-.07Z"/><path d="M89.5,60a1.68,1.68,0,0,0,.5-.07V60Z"/><path d="M91.5,69A2,2,0,0,1,90,70.93a1.68,1.68,0,0,1-.5.07h-30a1.68,1.68,0,0,1-.5-.07,2,2,0,0,1,0-3.86,1.68,1.68,0,0,1,.5-.07h30a1.68,1.68,0,0,1,.5.07A2,2,0,0,1,91.5,69Z"/><path d="M59,70.93a1.68,1.68,0,0,0,.5.07H59Z"/><path d="M59,67h.5a1.68,1.68,0,0,0-.5.07Z"/><path d="M90,67v.07a1.68,1.68,0,0,0-.5-.07Z"/><path d="M89.5,71a1.68,1.68,0,0,0,.5-.07V71Z"/><path d="M91.5,79A2,2,0,0,1,90,80.93a1.68,1.68,0,0,1-.5.07h-30a1.68,1.68,0,0,1-.5-.07,2,2,0,0,1,0-3.86,1.68,1.68,0,0,1,.5-.07h30a1.68,1.68,0,0,1,.5.07A2,2,0,0,1,91.5,79Z"/><path d="M59,80.93a1.68,1.68,0,0,0,.5.07H59Z"/><path d="M59,77h.5a1.68,1.68,0,0,0-.5.07Z"/><path d="M90,77v.07a1.68,1.68,0,0,0-.5-.07Z"/><path d="M89.5,81a1.68,1.68,0,0,0,.5-.07V81Z"/><path d="M91.5,89A2,2,0,0,1,90,90.93a1.68,1.68,0,0,1-.5.07h-30a1.68,1.68,0,0,1-.5-.07,2,2,0,0,1,0-3.86,1.68,1.68,0,0,1,.5-.07h30a1.68,1.68,0,0,1,.5.07A2,2,0,0,1,91.5,89Z"/><path d="M59,90.93a1.68,1.68,0,0,0,.5.07H59Z"/><path d="M59,87h.5a1.68,1.68,0,0,0-.5.07Z"/><path d="M90,87v.07a1.68,1.68,0,0,0-.5-.07Z"/><path d="M89.5,91a1.68,1.68,0,0,0,.5-.07V91Z"/><path d="M91.5,99a2,2,0,0,1-1.5,1.93,1.68,1.68,0,0,1-.5.07h-30a1.68,1.68,0,0,1-.5-.07,2,2,0,0,1,0-3.86,1.68,1.68,0,0,1,.5-.07h30a1.68,1.68,0,0,1,.5.07A2,2,0,0,1,91.5,99Z"/><path d="M59,100.93a1.68,1.68,0,0,0,.5.07H59Z"/><path d="M59,97h.5a1.68,1.68,0,0,0-.5.07Z"/><path d="M90,97v.07a1.68,1.68,0,0,0-.5-.07Z"/><path d="M89.5,101a1.68,1.68,0,0,0,.5-.07V101Z"/><path d="M91.5,109a2,2,0,0,1-1.5,1.93,1.68,1.68,0,0,1-.5.07h-30a1.68,1.68,0,0,1-.5-.07,2,2,0,0,1,0-3.86,1.68,1.68,0,0,1,.5-.07h30a1.68,1.68,0,0,1,.5.07A2,2,0,0,1,91.5,109Z"/><path d="M59,110.93a1.68,1.68,0,0,0,.5.07H59Z"/><path d="M59,107h.5a1.68,1.68,0,0,0-.5.07Z"/><path d="M90,107v.07a1.68,1.68,0,0,0-.5-.07Z"/><path d="M89.5,111a1.68,1.68,0,0,0,.5-.07V111Z"/><path d="M91.5,120a2,2,0,0,1-1.5,1.93,1.68,1.68,0,0,1-.5.07h-30a1.68,1.68,0,0,1-.5-.07,2,2,0,0,1,0-3.86,1.68,1.68,0,0,1,.5-.07h30a1.68,1.68,0,0,1,.5.07A2,2,0,0,1,91.5,120Z"/><path d="M59,121.93a1.68,1.68,0,0,0,.5.07H59Z"/><path d="M59,118h.5a1.68,1.68,0,0,0-.5.07Z"/><path d="M90,118v.07a1.68,1.68,0,0,0-.5-.07Z"/><path d="M89.5,122a1.68,1.68,0,0,0,.5-.07V122Z"/><path d="M137.5,58a2,2,0,0,1-1.5,1.93,1.68,1.68,0,0,1-.5.07h-30a1.68,1.68,0,0,1-.5-.07,2,2,0,0,1,0-3.86,1.68,1.68,0,0,1,.5-.07h30a1.68,1.68,0,0,1,.5.07A2,2,0,0,1,137.5,58Z"/><path d="M105,59.93a1.68,1.68,0,0,0,.5.07H105Z"/><path d="M105,56h.5a1.68,1.68,0,0,0-.5.07Z"/><path d="M136,56v.07a1.68,1.68,0,0,0-.5-.07Z"/><path d="M135.5,60a1.68,1.68,0,0,0,.5-.07V60Z"/><path d="M137.5,69a2,2,0,0,1-1.5,1.93,1.68,1.68,0,0,1-.5.07h-30a1.68,1.68,0,0,1-.5-.07,2,2,0,0,1,0-3.86,1.68,1.68,0,0,1,.5-.07h30a1.68,1.68,0,0,1,.5.07A2,2,0,0,1,137.5,69Z"/><path d="M105,70.93a1.68,1.68,0,0,0,.5.07H105Z"/><path d="M105,67h.5a1.68,1.68,0,0,0-.5.07Z"/><path d="M136,67v.07a1.68,1.68,0,0,0-.5-.07Z"/><path d="M135.5,71a1.68,1.68,0,0,0,.5-.07V71Z"/><path d="M137.5,79a2,2,0,0,1-1.5,1.93,1.68,1.68,0,0,1-.5.07h-30a1.68,1.68,0,0,1-.5-.07,2,2,0,0,1,0-3.86,1.68,1.68,0,0,1,.5-.07h30a1.68,1.68,0,0,1,.5.07A2,2,0,0,1,137.5,79Z"/><path d="M105,80.93a1.68,1.68,0,0,0,.5.07H105Z"/><path d="M105,77h.5a1.68,1.68,0,0,0-.5.07Z"/><path d="M136,77v.07a1.68,1.68,0,0,0-.5-.07Z"/><path d="M135.5,81a1.68,1.68,0,0,0,.5-.07V81Z"/><path d="M137.5,89a2,2,0,0,1-1.5,1.93,1.68,1.68,0,0,1-.5.07h-30a1.68,1.68,0,0,1-.5-.07,2,2,0,0,1,0-3.86,1.68,1.68,0,0,1,.5-.07h30a1.68,1.68,0,0,1,.5.07A2,2,0,0,1,137.5,89Z"/><path d="M105.5,91H105v-.07A1.68,1.68,0,0,0,105.5,91Z"/><path d="M105.5,87a1.68,1.68,0,0,0-.5.07V87Z"/><path d="M136,87v.07a1.68,1.68,0,0,0-.5-.07Z"/><path d="M136,90.93V91h-.5A1.68,1.68,0,0,0,136,90.93Z"/><path d="M137.5,99a2,2,0,0,1-1.5,1.93,1.68,1.68,0,0,1-.5.07h-30a1.68,1.68,0,0,1-.5-.07,2,2,0,0,1,0-3.86,1.68,1.68,0,0,1,.5-.07h30a1.68,1.68,0,0,1,.5.07A2,2,0,0,1,137.5,99Z"/><path d="M105,100.93a1.68,1.68,0,0,0,.5.07H105Z"/><path d="M105,97h.5a1.68,1.68,0,0,0-.5.07Z"/><path d="M136,97v.07a1.68,1.68,0,0,0-.5-.07Z"/><path d="M135.5,101a1.68,1.68,0,0,0,.5-.07V101Z"/><path d="M137.5,109a2,2,0,0,1-1.5,1.93,1.68,1.68,0,0,1-.5.07h-30a1.68,1.68,0,0,1-.5-.07,2,2,0,0,1,0-3.86,1.68,1.68,0,0,1,.5-.07h30a1.68,1.68,0,0,1,.5.07A2,2,0,0,1,137.5,109Z"/><path d="M105,110.93a1.68,1.68,0,0,0,.5.07H105Z"/><path d="M105,107h.5a1.68,1.68,0,0,0-.5.07Z"/><path d="M136,107v.07a1.68,1.68,0,0,0-.5-.07Z"/><path d="M135.5,111a1.68,1.68,0,0,0,.5-.07V111Z"/><path d="M137.5,120a2,2,0,0,1-1.5,1.93,1.68,1.68,0,0,1-.5.07h-30a1.68,1.68,0,0,1-.5-.07,2,2,0,0,1,0-3.86,1.68,1.68,0,0,1,.5-.07h30a1.68,1.68,0,0,1,.5.07A2,2,0,0,1,137.5,120Z"/><path d="M105,121.93a1.68,1.68,0,0,0,.5.07H105Z"/><path d="M105,118h.5a1.68,1.68,0,0,0-.5.07Z"/><path d="M136,118v.07a1.68,1.68,0,0,0-.5-.07Z"/><path d="M135.5,122a1.68,1.68,0,0,0,.5-.07V122Z"/><path d="M119.63,37.41a2,2,0,0,1-.13.65Z"/><path d="M119.5,38.06l0,.13h0S119.48,38.1,119.5,38.06Z"/><path d="M154,118V0H42V119.89c-.18,1.5-2.33,17.37-18.38,18.11q-1.2.06-2.52,0H21l-.31,0a13.26,13.26,0,0,1-9.88-3.1C6.29,131.05,4,124,4,114V54H0v60c0,11.24,2.76,19.3,8.21,24a17.46,17.46,0,0,0,11.31,4.13,14.7,14.7,0,0,0,1.54-.08H132.9c6,.3,10.89-1.38,14.52-5C154.44,130.05,154,118.41,154,118Zm-9.4,16.18c-2.79,2.78-6.68,4.06-11.6,3.82H36c8.72-6.27,9.94-17.65,10-17.81V4H150V118.09C150,118.19,150.38,128.44,144.6,134.18Z"/><path d="M71,17V38a2,2,0,0,1-2,2,2.14,2.14,0,0,1-.45,0,2.35,2.35,0,0,1-2.44-1L56,23.49V38a2,2,0,0,1-4,0V17a2,2,0,0,1,1.22-1.84h0l.07-.05a2.35,2.35,0,0,1,3.25.67L67,31.74V17a2,2,0,0,1,4,0Z"/><path d="M91,38a2,2,0,0,1-2,2H79a2,2,0,0,1-2-2V17a2,2,0,0,1,2-2H89a2,2,0,0,1,0,4H81v6l6,0h0a2,2,0,0,1,0,4h0l-6,0v7h8A2,2,0,0,1,91,38Z"/><path d="M123.59,17.6l-4,19.81-.13.65s0,.09,0,.13a2,2,0,0,1-1.13,1A2,2,0,0,1,115.76,38h0l-5.3-14.39-5.39,14.14h0a2,2,0,0,1-4,.39L97,17.6a2,2,0,1,1,3.92-.79l2.71,13.52,4.77-12.54a2,2,0,0,1,3.86-.83h0L117,30l2.63-13.15a2,2,0,1,1,3.92.79Z"/><path d="M141.22,37.82A6.61,6.61,0,0,1,136,40c-5.87,0-8.36-4.08-8.91-6.41a1.94,1.94,0,0,1,0-.2,1.67,1.67,0,0,1,0-.39,2,2,0,0,1,4-.42v0c.11.43,1,3.4,5,3.4a2.57,2.57,0,0,0,2.19-.8c.93-1.06.93-3.07.84-3.85-.13-.48-1.11-3.35-6-3.35a5.41,5.41,0,0,1-4.38-1.94A6.41,6.41,0,0,1,127.3,22c0-3.86,2.69-8,6.7-8a10.53,10.53,0,0,1,8.5,3.68,1.19,1.19,0,0,1,.16.21A1.94,1.94,0,0,1,143,19a2,2,0,0,1-3.66,1.11.07.07,0,0,0,0,0C139.09,19.8,137.53,18,134,18c-1.52,0-2.7,2.14-2.7,4a2.5,2.5,0,0,0,.42,1.54A1.47,1.47,0,0,0,133,24c6.83,0,9.5,4.32,10,6.61l0,.11C143,31.16,143.54,35.15,141.22,37.82Z"/><path d="M23.62,138q-1.2.06-2.52,0Z"/><path d="M22,132c-9.49,0-12-9.16-12-14l1-72H23v4H15l-1,68c0,.37.14,10,8,10s8.9-9.09,9-10.09V7h4V118.17C34.59,123,31.37,132,22,132Z"/><path d="M23.91,142c-.48,0-1,0-1.46,0l-1.39,0h2.85Z"/></g></g></svg>