<svg xmlns="http://www.w3.org/2000/svg" viewBox="0 0 144 144"><title>miscellaneous-icon-nav</title><g id="Layer_2" data-name="Layer 2"><g id="miscellaneous-icon-nav"><path d="M28,56A28,28,0,1,1,56,28,28,28,0,0,1,28,56ZM28,4A24,24,0,1,0,52,28,24,24,0,0,0,28,4Z"/><path d="M116,56a28,28,0,1,1,28-28A28,28,0,0,1,116,56Zm0-52a24,24,0,1,0,24,24A24,24,0,0,0,116,4Z"/><path d="M28,144a28,28,0,1,1,28-28A28,28,0,0,1,28,144Zm0-52a24,24,0,1,0,24,24A24,24,0,0,0,28,92Z"/><path d="M116,144a28,28,0,1,1,28-28A28,28,0,0,1,116,144Zm0-52a24,24,0,1,0,24,24A24,24,0,0,0,116,92Z"/></g></g></svg>