<svg xmlns="http://www.w3.org/2000/svg" viewBox="0 0 148.19 137.04"><title>user-icon</title><g id="Layer_2" data-name="Layer 2"><g id="user-icon"><polygon points="146.19 137 144.19 137.04 144.19 137 146.19 137"/><path d="M123.06,85.44a93.68,93.68,0,0,0-21.47-14,41,41,0,1,0-3.52,2.83C103.73,76.72,140.76,93.94,144,133H4.47c1.12-7.5,6.11-32.44,23.9-45.38L26,84.38C3.54,100.73.32,133.43.2,134.82L0,137H146.19l2,0C147.66,112,134.23,95.14,123.06,85.44ZM74.19,78a37,37,0,1,1,37-37A37,37,0,0,1,74.19,78Z"/></g></g></svg>