<svg xmlns="http://www.w3.org/2000/svg" viewBox="0 0 108.82 155.63"><title>vet-icon-nav</title><g id="Layer_2" data-name="Layer 2"><g id="vet-icon-nav"><path d="M92.72,100.65a16.13,16.13,0,0,0-16,14.09H48.43V96.26L69.57,65.42h0c10.62-9.26,11.07-23.3,11.07-24.15V0H62.52V9.06h4V4H76.61V41.27c0,1.1-.34,27.11-30.19,28.18-27,0-28.18-26.91-28.18-27.18V4H28.3v6h4V0H14.21V42.27c0,4.42,2.45,16.91,12.12,24.68l-.07,0L44.41,96.18v18.56H18.14c-6.22.33-11,2.46-14.1,6.35C-.54,126.76-.1,134.32.13,136.49a1,1,0,0,1,0,.15c.44,12.71,12.35,18.75,23.42,19h.67c11.38,0,23.63-6.09,24.19-19.76V118.76H76.74a16.1,16.1,0,1,0,16-18.11ZM44.41,135.79c-.47,11.14-11.1,16-20.75,15.8-9.23-.19-19.15-5-19.49-15.15a1.58,1.58,0,0,1,0-.31h0c0-.07,0-.15,0-.25-.18-1.86-.45-8,3.06-12.28,2.37-2.92,6.11-4.56,11.1-4.83H44.41ZM46.52,92,33.6,71.18a34.57,34.57,0,0,0,12.89,2.29,42.54,42.54,0,0,0,15.28-3.14Zm46.2,36.86a12.08,12.08,0,1,1,12.07-12.08A12.09,12.09,0,0,1,92.72,128.83Z"/><path d="M4.16,136.12c0-.07,0-.15,0-.25h0A2,2,0,0,0,4.16,136.12Z"/><path d="M4.19,136.44h0a1.58,1.58,0,0,1,0-.31Z"/><path d="M28.3,38.25c-3,0-6-2.18-6-7,0-7.47,4.63-8,6-8s6,.58,6,8.05C34.34,35.68,32.14,38.25,28.3,38.25Zm0-11.08c-1.66,0-2,2.19-2,4,0,2,.68,3,2,3,.9,0,2,0,2-3C30.32,29.36,30,27.17,28.3,27.17Z"/><path d="M40.38,29.19c-3,0-6-2.18-6-7,0-7.47,4.62-8,6-8s6,.58,6,8.05C46.42,26.62,44.22,29.19,40.38,29.19Zm0-11.07c-1.66,0-2,2.19-2,4,0,2,.67,3,2,3,.9,0,2,0,2-3C42.39,20.31,42,18.12,40.38,18.12Z"/><path d="M54.47,29.19c-3,0-6-2.18-6-7,0-7.47,4.62-8,6-8s6,.58,6,8.05C60.51,26.62,58.31,29.19,54.47,29.19Zm0-11.07c-1.66,0-2,2.19-2,4,0,2,.67,3,2,3,.9,0,2,0,2-3C56.48,20.31,56.13,18.12,54.47,18.12Z"/><path d="M66.55,38.25c-3,0-6-2.18-6-7,0-7.47,4.62-8,6-8s6,.58,6,8.05C72.59,35.68,70.39,38.25,66.55,38.25Zm0-11.08c-1.67,0-2,2.19-2,4,0,2,.67,3,2,3,.89,0,2,0,2-3C68.56,29.36,68.21,27.17,66.55,27.17Z"/><path d="M50.39,60.53a28.85,28.85,0,0,1-3-.14c-8,.43-13.66-1-16.74-4.27a8,8,0,0,1-2.33-5.74c-.37-3.41.51-10.06,6.41-12A6.57,6.57,0,0,0,39,34.85c1.3-2.08,2.92-4.66,8.4-4.66,5.93,0,8.34,3.31,10.11,5.72,1,1.35,1.63,2.19,2.45,2.4,5.16,1,6.56,7.4,6.56,11a9.55,9.55,0,0,1-3.22,7.47C59.75,60,54,60.53,50.39,60.53Zm-2.73-4.15c2.48.28,9.66.38,13-2.6a5.65,5.65,0,0,0,1.86-4.46c0-.06-.12-6.43-3.41-7.09-2.37-.59-3.67-2.37-4.82-3.94-1.6-2.18-3-4.07-6.86-4.07-3.25,0-3.87,1-5,2.77a10.42,10.42,0,0,1-6.53,5.2c-4.3,1.44-3.62,7.63-3.59,7.89l0,.23,0,.24a4.05,4.05,0,0,0,1.32,2.89c1.57,1.6,5.22,3.4,13.67,2.93h.18Z"/></g></g></svg>