<svg xmlns="http://www.w3.org/2000/svg" viewBox="0 0 151.5 123.64"><title>back-arrow-icon</title><g id="Layer_2" data-name="Layer 2"><g id="back-arrow-icon"><g id="g2214"><g id="path1801"><path d="M151.5,79.65c0,21.19-13,44-41.61,44H43.13a2,2,0,0,1,0-4h66.76c25.84,0,37.61-20.73,37.61-40A44.35,44.35,0,0,0,137,50.35C129.4,41.61,118.43,37,105.33,37H6.5l29,29a2,2,0,0,1-1.42,3.41,2,2,0,0,1-1.41-.58L.58,36.73A2,2,0,0,1,.48,34s0,0,0,0l.1-.12.15-.12a1.17,1.17,0,0,1,.17-.28,1.19,1.19,0,0,1,.15-.18L32.61.61a2,2,0,0,1,2.88,2.78L6.94,33h98.39c14.29,0,26.3,5.1,34.71,14.73A48.33,48.33,0,0,1,151.5,79.65Z"/><path d="M.91,33.5a1.17,1.17,0,0,0-.17.28l-.15.12L.49,34A1.92,1.92,0,0,1,.91,33.5Z"/></g></g></g></g></svg>