<svg xmlns="http://www.w3.org/2000/svg" xmlns:xlink="http://www.w3.org/1999/xlink" viewBox="0 0 1920 1080"><defs><style>.cls-1{fill:none;}.cls-2{opacity:0.2;}.cls-3{fill:url(#radial-gradient);}.cls-4{fill:url(#radial-gradient-2);}.cls-5{fill:url(#radial-gradient-3);}.cls-6{fill:url(#radial-gradient-4);}.cls-7{fill:url(#radial-gradient-5);}.cls-8{fill:url(#radial-gradient-6);}.cls-9{fill:url(#radial-gradient-7);}.cls-10{fill:url(#radial-gradient-8);}.cls-11{fill:url(#radial-gradient-9);}.cls-12{fill:url(#radial-gradient-10);}.cls-13{fill:url(#radial-gradient-11);}.cls-14{fill:url(#radial-gradient-12);}.cls-15{fill:url(#radial-gradient-13);}.cls-16{fill:url(#radial-gradient-14);}.cls-17{fill:url(#radial-gradient-15);}.cls-18{fill:url(#radial-gradient-16);}.cls-19{fill:url(#radial-gradient-17);}.cls-20{fill:url(#radial-gradient-18);}.cls-21{fill:url(#radial-gradient-19);}.cls-22{fill:url(#radial-gradient-20);}.cls-23{fill:url(#radial-gradient-21);}.cls-24{fill:url(#radial-gradient-22);}.cls-25{fill:url(#radial-gradient-23);}.cls-26{fill:url(#radial-gradient-24);}.cls-27{fill:url(#radial-gradient-25);}.cls-28{fill:url(#radial-gradient-26);}.cls-29{fill:url(#radial-gradient-27);}.cls-30{fill:url(#radial-gradient-28);}.cls-31{fill:url(#radial-gradient-29);}.cls-32{fill:url(#radial-gradient-30);}.cls-33{fill:url(#radial-gradient-31);}.cls-34{fill:url(#radial-gradient-32);}.cls-35{fill:url(#radial-gradient-33);}.cls-36{fill:url(#radial-gradient-34);}.cls-37{fill:url(#radial-gradient-35);}.cls-38{fill:url(#radial-gradient-36);}.cls-39{fill:url(#radial-gradient-37);}.cls-40{fill:url(#radial-gradient-38);}.cls-41{fill:url(#radial-gradient-39);}.cls-42{fill:url(#radial-gradient-40);}.cls-43{fill:url(#radial-gradient-41);}.cls-44{fill:url(#radial-gradient-42);}.cls-45{fill:url(#radial-gradient-43);}.cls-46{fill:url(#radial-gradient-44);}.cls-47{fill:url(#radial-gradient-45);}.cls-48{fill:url(#radial-gradient-46);}.cls-49{fill:url(#radial-gradient-47);}.cls-50{fill:url(#radial-gradient-48);}.cls-51{fill:url(#radial-gradient-49);}.cls-52{fill:url(#radial-gradient-50);}.cls-53{fill:url(#radial-gradient-51);}.cls-54{fill:url(#Alyssa_2);}</style><radialGradient id="radial-gradient" cx="-47567.29" cy="-51563.19" r="6.21" gradientTransform="matrix(1, 0, 0, -1, 47765.13, -51504.55)" gradientUnits="userSpaceOnUse"><stop offset="0" stop-color="#fb8500"/><stop offset="1" stop-color="#fb8500"/></radialGradient><radialGradient id="radial-gradient-2" cx="-47556.25" cy="-51554.91" r="6.21" xlink:href="#radial-gradient"/><radialGradient id="radial-gradient-3" cx="-47549.84" cy="-51576.55" r="15.79" xlink:href="#radial-gradient"/><radialGradient id="radial-gradient-4" cx="-47567.29" cy="-51638.19" r="6.21" xlink:href="#radial-gradient"/><radialGradient id="radial-gradient-5" cx="-47556.25" cy="-51629.91" r="6.21" xlink:href="#radial-gradient"/><radialGradient id="radial-gradient-6" cx="-47549.84" cy="-51651.55" r="15.79" xlink:href="#radial-gradient"/><radialGradient id="radial-gradient-7" cx="-47675.39" cy="-51632.37" r="6.21" xlink:href="#radial-gradient"/><radialGradient id="radial-gradient-8" cx="-47664.35" cy="-51624.09" r="6.21" xlink:href="#radial-gradient"/><radialGradient id="radial-gradient-9" cx="-47651.46" cy="-51624.09" r="6.21" xlink:href="#radial-gradient"/><radialGradient id="radial-gradient-10" cx="-47640.42" cy="-51632.37" r="6.21" xlink:href="#radial-gradient"/><radialGradient id="radial-gradient-11" cx="-47657.94" cy="-51645.73" r="15.79" xlink:href="#radial-gradient"/><radialGradient id="radial-gradient-12" cx="-47759.56" cy="-51554.91" r="6.21" xlink:href="#radial-gradient"/><radialGradient id="radial-gradient-13" cx="-47748.52" cy="-51563.19" r="6.21" xlink:href="#radial-gradient"/><radialGradient id="radial-gradient-14" cx="-47766.04" cy="-51576.55" r="15.79" xlink:href="#radial-gradient"/><radialGradient id="radial-gradient-15" cx="-47759.56" cy="-51629.91" r="6.21" xlink:href="#radial-gradient"/><radialGradient id="radial-gradient-16" cx="-47748.52" cy="-51638.19" r="6.21" xlink:href="#radial-gradient"/><radialGradient id="radial-gradient-17" cx="-47766.04" cy="-51651.55" r="15.79" xlink:href="#radial-gradient"/><radialGradient id="radial-gradient-18" cx="-47624.29" cy="-51530.83" r="6.21" xlink:href="#radial-gradient"/><radialGradient id="radial-gradient-19" cx="-47613.25" cy="-51522.55" r="6.21" xlink:href="#radial-gradient"/><radialGradient id="radial-gradient-20" cx="-47600.37" cy="-51522.55" r="6.21" xlink:href="#radial-gradient"/><radialGradient id="radial-gradient-21" cx="-47589.32" cy="-51530.83" r="6.21" xlink:href="#radial-gradient"/><radialGradient id="radial-gradient-22" cx="-47606.84" cy="-51544.19" r="15.79" xlink:href="#radial-gradient"/><radialGradient id="radial-gradient-23" cx="-47567.29" cy="-51499.83" r="6.21" xlink:href="#radial-gradient"/><radialGradient id="radial-gradient-24" cx="-47549.84" cy="-51513.19" r="15.79" xlink:href="#radial-gradient"/><radialGradient id="radial-gradient-25" cx="-47619.39" cy="-51599.01" r="6.21" xlink:href="#radial-gradient"/><radialGradient id="radial-gradient-26" cx="-47608.35" cy="-51590.73" r="6.21" xlink:href="#radial-gradient"/><radialGradient id="radial-gradient-27" cx="-47595.46" cy="-51590.73" r="6.21" xlink:href="#radial-gradient"/><radialGradient id="radial-gradient-28" cx="-47584.42" cy="-51599.01" r="6.21" xlink:href="#radial-gradient"/><radialGradient id="radial-gradient-29" cx="-47601.94" cy="-51612.37" r="15.79" xlink:href="#radial-gradient"/><radialGradient id="radial-gradient-30" cx="-47732.39" cy="-51600.01" r="6.21" xlink:href="#radial-gradient"/><radialGradient id="radial-gradient-31" cx="-47721.35" cy="-51591.73" r="6.21" xlink:href="#radial-gradient"/><radialGradient id="radial-gradient-32" cx="-47708.46" cy="-51591.73" r="6.21" xlink:href="#radial-gradient"/><radialGradient id="radial-gradient-33" cx="-47697.42" cy="-51600.01" r="6.21" xlink:href="#radial-gradient"/><radialGradient id="radial-gradient-34" cx="-47714.94" cy="-51613.37" r="15.79" xlink:href="#radial-gradient"/><radialGradient id="radial-gradient-35" cx="-47675.39" cy="-51494.01" r="6.21" xlink:href="#radial-gradient"/><radialGradient id="radial-gradient-36" cx="-47664.35" cy="-51485.73" r="6.21" xlink:href="#radial-gradient"/><radialGradient id="radial-gradient-37" cx="-47651.46" cy="-51485.73" r="6.21" xlink:href="#radial-gradient"/><radialGradient id="radial-gradient-38" cx="-47640.42" cy="-51494.01" r="6.21" xlink:href="#radial-gradient"/><radialGradient id="radial-gradient-39" cx="-47657.94" cy="-51507.37" r="15.79" xlink:href="#radial-gradient"/><radialGradient id="radial-gradient-40" cx="-47675.39" cy="-51569.01" r="6.21" xlink:href="#radial-gradient"/><radialGradient id="radial-gradient-41" cx="-47664.35" cy="-51560.73" r="6.21" xlink:href="#radial-gradient"/><radialGradient id="radial-gradient-42" cx="-47651.46" cy="-51560.73" r="6.21" xlink:href="#radial-gradient"/><radialGradient id="radial-gradient-43" cx="-47640.42" cy="-51569.01" r="6.21" xlink:href="#radial-gradient"/><radialGradient id="radial-gradient-44" cx="-47657.94" cy="-51582.37" r="15.79" xlink:href="#radial-gradient"/><radialGradient id="radial-gradient-45" cx="-47727.49" cy="-51529.83" r="6.21" xlink:href="#radial-gradient"/><radialGradient id="radial-gradient-46" cx="-47716.44" cy="-51521.55" r="6.21" xlink:href="#radial-gradient"/><radialGradient id="radial-gradient-47" cx="-47703.56" cy="-51521.55" r="6.21" xlink:href="#radial-gradient"/><radialGradient id="radial-gradient-48" cx="-47692.52" cy="-51529.83" r="6.21" xlink:href="#radial-gradient"/><radialGradient id="radial-gradient-49" cx="-47710.04" cy="-51543.19" r="15.79" xlink:href="#radial-gradient"/><radialGradient id="radial-gradient-50" cx="-47748.52" cy="-51499.83" r="6.21" xlink:href="#radial-gradient"/><radialGradient id="radial-gradient-51" cx="-47766.04" cy="-51513.19" r="15.79" xlink:href="#radial-gradient"/><pattern id="Alyssa_2" data-name="Alyssa 2" width="216.19" height="138.36" patternTransform="translate(-0.46 0.46)" patternUnits="userSpaceOnUse" viewBox="0 0 216.19 138.36"><rect class="cls-1" width="216.19" height="138.36"/><g id="vet-icon-nav" class="cls-2"><path class="cls-3" d="M197.84,51.79c-1.26,0-5.49.48-5.49,7.31,0,4.41,2.74,6.4,5.49,6.4,3.51,0,5.52-2.35,5.48-6.35C203.32,52.32,199.09,51.79,197.84,51.79Zm0,10c-1.21,0-1.83-.91-1.83-2.74,0-1.66.31-3.66,1.83-3.66s1.84,2,1.82,3.66C199.66,61.77,198.66,61.77,197.84,61.77Z"/><path class="cls-4" d="M208.88,43.5c-1.26,0-5.49.49-5.49,7.32,0,4.41,2.75,6.4,5.49,6.4,3.51,0,5.52-2.35,5.49-6.36C214.37,44,210.14,43.5,208.88,43.5Zm0,10c-1.22,0-1.83-.92-1.83-2.75,0-1.65.31-3.65,1.83-3.65s1.84,2,1.83,3.65C210.71,53.5,209.7,53.5,208.88,53.5Z"/><path class="cls-5" d="M226.78,65.56c-.75-.2-1.32-1-2.24-2.2-1.62-2.2-3.82-5.23-9.24-5.23-5,0-6.49,2.36-7.68,4.26a6,6,0,0,1-3.91,3.23c-5.39,1.77-6.19,7.85-5.86,11A7.3,7.3,0,0,0,200,81.84c2.82,3,8,4.3,15.31,3.9a22.85,22.85,0,0,0,2.74.13c3.3,0,8.56-.48,11.8-3.43a8.74,8.74,0,0,0,2.95-6.83C232.78,72.32,231.5,66.47,226.78,65.56Zm.64,14.14c-3,2.72-9.62,2.63-11.88,2.38h-.33c-7.73.43-11.07-1.22-12.5-2.68a3.72,3.72,0,0,1-1.21-2.64v-.43c0-.24-.65-5.9,3.28-7.22a9.49,9.49,0,0,0,6-4.75c1-1.62,1.6-2.53,4.58-2.53,3.52,0,4.8,1.73,6.27,3.72,1.05,1.43,2.24,3.06,4.4,3.6,3,.6,3.12,6.43,3.12,6.48A5.16,5.16,0,0,1,227.42,79.7Z"/></g><g id="vet-icon-nav-2" data-name="vet-icon-nav" class="cls-2"><path class="cls-6" d="M197.84,126.79c-1.26,0-5.49.48-5.49,7.31,0,4.41,2.74,6.4,5.49,6.4,3.51,0,5.52-2.35,5.48-6.35C203.32,127.32,199.09,126.79,197.84,126.79Zm0,10c-1.21,0-1.83-.91-1.83-2.74,0-1.66.31-3.66,1.83-3.66s1.84,2,1.82,3.66C199.66,136.77,198.66,136.77,197.84,136.77Z"/><path class="cls-7" d="M208.88,118.5c-1.26,0-5.49.49-5.49,7.32,0,4.41,2.75,6.4,5.49,6.4,3.51,0,5.52-2.35,5.49-6.36C214.37,119,210.14,118.5,208.88,118.5Zm0,10c-1.22,0-1.83-.92-1.83-2.75,0-1.65.31-3.65,1.83-3.65s1.84,2,1.83,3.65C210.71,128.5,209.7,128.5,208.88,128.5Z"/><path class="cls-8" d="M226.78,140.56c-.75-.2-1.32-1-2.24-2.2-1.62-2.2-3.82-5.23-9.24-5.23-5,0-6.49,2.36-7.68,4.26a6,6,0,0,1-3.91,3.23c-5.39,1.77-6.19,7.85-5.86,11a7.3,7.3,0,0,0,2.13,5.25c2.82,3,8,4.3,15.31,3.9a22.85,22.85,0,0,0,2.74.13c3.3,0,8.56-.48,11.8-3.43a8.74,8.74,0,0,0,2.95-6.83C232.78,147.32,231.5,141.47,226.78,140.56Zm.64,14.14c-3,2.72-9.62,2.63-11.88,2.38h-.33c-7.73.43-11.07-1.22-12.5-2.68a3.72,3.72,0,0,1-1.21-2.64v-.43c0-.24-.65-5.9,3.28-7.22a9.49,9.49,0,0,0,6-4.75c1-1.62,1.6-2.53,4.58-2.53,3.52,0,4.8,1.73,6.27,3.72,1.05,1.43,2.24,3.06,4.4,3.6,3,.6,3.12,6.43,3.12,6.48A5.16,5.16,0,0,1,227.42,154.7Z"/></g><g id="vet-icon-nav-3" data-name="vet-icon-nav" class="cls-2"><path class="cls-9" d="M89.74,121c-1.25,0-5.49.48-5.49,7.31,0,4.41,2.75,6.4,5.49,6.4,3.51,0,5.52-2.35,5.48-6.35C95.22,121.5,91,121,89.74,121Zm0,10c-1.21,0-1.83-.91-1.83-2.74,0-1.65.31-3.66,1.83-3.66s1.84,2,1.83,3.66C91.57,131,90.56,131,89.74,131Z"/><path class="cls-10" d="M100.78,112.69c-1.26,0-5.48.48-5.48,7.31,0,4.41,2.74,6.4,5.48,6.4,3.51,0,5.52-2.35,5.49-6.35C106.27,113.22,102,112.69,100.78,112.69Zm0,10c-1.21,0-1.83-.92-1.83-2.74,0-1.66.31-3.66,1.83-3.66s1.84,2,1.83,3.66C102.61,122.68,101.61,122.68,100.78,122.68Z"/><path class="cls-11" d="M113.66,112.69c-1.26,0-5.48.48-5.48,7.31,0,4.41,2.74,6.4,5.48,6.4,3.52,0,5.53-2.35,5.49-6.35C119.15,113.22,114.93,112.69,113.66,112.69Zm0,10c-1.21,0-1.82-.92-1.82-2.74,0-1.66.31-3.66,1.82-3.66s1.84,2,1.83,3.66C115.49,122.68,114.49,122.68,113.66,122.68Z"/><path class="cls-12" d="M124.71,121c-1.26,0-5.49.48-5.49,7.31,0,4.41,2.75,6.4,5.49,6.4,3.51,0,5.52-2.35,5.48-6.35C130.19,121.5,126,121,124.71,121Zm0,10c-1.22,0-1.83-.91-1.83-2.74,0-1.65.3-3.66,1.83-3.66s1.84,2,1.83,3.66C126.54,131,125.52,131,124.71,131Z"/><path class="cls-13" d="M118.68,134.74c-.75-.19-1.32-1-2.24-2.2-1.61-2.2-3.82-5.23-9.24-5.23-5,0-6.49,2.36-7.68,4.26a6,6,0,0,1-3.9,3.23c-5.4,1.78-6.2,7.86-5.86,11A7.26,7.26,0,0,0,91.89,151c2.81,3,8,4.3,15.3,3.91a25.23,25.23,0,0,0,2.74.12c3.3,0,8.56-.48,11.81-3.43a8.76,8.76,0,0,0,2.94-6.83C124.68,141.5,123.4,135.65,118.68,134.74Zm.64,14.14c-3,2.73-9.61,2.63-11.88,2.38h-.33c-7.73.43-11.06-1.22-12.5-2.68a3.72,3.72,0,0,1-1.21-2.64v-.43c0-.24-.64-5.9,3.29-7.21a9.56,9.56,0,0,0,6-4.76c1-1.62,1.6-2.53,4.57-2.53,3.53,0,4.81,1.73,6.27,3.72,1,1.43,2.24,3.06,4.41,3.6,3,.61,3.11,6.43,3.11,6.48A5.1,5.1,0,0,1,119.32,148.88Z"/></g><g id="vet-icon-nav-4" data-name="vet-icon-nav" class="cls-2"><path class="cls-14" d="M5.57,43.5C4.31,43.5.08,44,.08,50.82c0,4.41,2.74,6.4,5.49,6.4,3.51,0,5.52-2.35,5.48-6.36C11.05,44,6.83,43.5,5.57,43.5Zm0,10c-1.22,0-1.83-.92-1.83-2.75,0-1.65.31-3.65,1.83-3.65s1.84,2,1.83,3.65C7.4,53.5,6.39,53.5,5.57,53.5Z"/><path class="cls-15" d="M16.61,51.79c-1.26,0-5.48.48-5.48,7.31,0,4.41,2.74,6.4,5.48,6.4,3.51,0,5.52-2.35,5.49-6.35C22.1,52.32,17.87,51.79,16.61,51.79Zm0,10c-1.21,0-1.83-.91-1.83-2.74,0-1.66.3-3.66,1.83-3.66s1.84,2,1.83,3.66C18.44,61.77,17.43,61.77,16.61,61.77Z"/><path class="cls-16" d="M10.59,65.56c-.75-.2-1.33-1-2.24-2.2-1.62-2.2-3.82-5.23-9.25-5.23-5,0-6.49,2.36-7.68,4.26a6,6,0,0,1-3.9,3.23c-5.39,1.77-6.2,7.85-5.86,11a7.26,7.26,0,0,0,2.13,5.25c2.82,3,8,4.3,15.3,3.9a23,23,0,0,0,2.75.13c3.3,0,8.55-.48,11.8-3.43a8.7,8.7,0,0,0,2.94-6.83C16.58,72.32,15.3,66.47,10.59,65.56Zm.64,14.14C8.17,82.42,1.61,82.33-.66,82.08H-1c-7.72.43-11.06-1.22-12.5-2.68a3.67,3.67,0,0,1-1.2-2.64v-.43c0-.24-.65-5.9,3.28-7.22a9.49,9.49,0,0,0,6-4.75c1-1.62,1.6-2.53,4.57-2.53,3.53,0,4.81,1.73,6.27,3.72,1,1.43,2.24,3.06,4.41,3.6,3,.6,3.12,6.43,3.12,6.48A5.16,5.16,0,0,1,11.23,79.7Z"/></g><g id="vet-icon-nav-5" data-name="vet-icon-nav" class="cls-2"><path class="cls-17" d="M5.57,118.5c-1.26,0-5.49.49-5.49,7.32,0,4.41,2.74,6.4,5.49,6.4,3.51,0,5.52-2.35,5.48-6.36C11.05,119,6.83,118.5,5.57,118.5Zm0,10c-1.22,0-1.83-.92-1.83-2.75,0-1.65.31-3.65,1.83-3.65s1.84,2,1.83,3.65C7.4,128.5,6.39,128.5,5.57,128.5Z"/><path class="cls-18" d="M16.61,126.79c-1.26,0-5.48.48-5.48,7.31,0,4.41,2.74,6.4,5.48,6.4,3.51,0,5.52-2.35,5.49-6.35C22.1,127.32,17.87,126.79,16.61,126.79Zm0,10c-1.21,0-1.83-.91-1.83-2.74,0-1.66.3-3.66,1.83-3.66s1.84,2,1.83,3.66C18.44,136.77,17.43,136.77,16.61,136.77Z"/><path class="cls-19" d="M10.59,140.56c-.75-.2-1.33-1-2.24-2.2-1.62-2.2-3.82-5.23-9.25-5.23-5,0-6.49,2.36-7.68,4.26a6,6,0,0,1-3.9,3.23c-5.39,1.77-6.2,7.85-5.86,11a7.26,7.26,0,0,0,2.13,5.25c2.82,3,8,4.3,15.3,3.9a23,23,0,0,0,2.75.13c3.3,0,8.55-.48,11.8-3.43a8.7,8.7,0,0,0,2.94-6.83C16.58,147.32,15.3,141.47,10.59,140.56Zm.64,14.14c-3.06,2.72-9.62,2.63-11.89,2.38H-1c-7.72.43-11.06-1.22-12.5-2.68a3.67,3.67,0,0,1-1.2-2.64v-.43c0-.24-.65-5.9,3.28-7.22a9.49,9.49,0,0,0,6-4.75c1-1.62,1.6-2.53,4.57-2.53,3.53,0,4.81,1.73,6.27,3.72,1,1.43,2.24,3.06,4.41,3.6,3,.6,3.12,6.43,3.12,6.48A5.16,5.16,0,0,1,11.23,154.7Z"/></g><g id="vet-icon-nav-6" data-name="vet-icon-nav" class="cls-2"><path class="cls-20" d="M140.84,19.43c-1.26,0-5.49.48-5.49,7.31,0,4.41,2.74,6.4,5.49,6.4,3.51,0,5.52-2.35,5.48-6.35C146.32,20,142.09,19.43,140.84,19.43Zm0,10c-1.21,0-1.83-.92-1.83-2.74,0-1.66.31-3.66,1.83-3.66s1.84,2,1.82,3.66C142.66,29.41,141.66,29.41,140.84,29.41Z"/><path class="cls-21" d="M151.88,11.14c-1.26,0-5.49.49-5.49,7.32,0,4.4,2.75,6.4,5.49,6.4,3.51,0,5.52-2.35,5.49-6.36C157.37,11.67,153.14,11.14,151.88,11.14Zm0,10c-1.22,0-1.83-.91-1.83-2.74,0-1.65.31-3.65,1.83-3.65s1.84,2,1.83,3.65C153.71,21.13,152.7,21.13,151.88,21.13Z"/><path class="cls-22" d="M164.76,11.14c-1.26,0-5.48.49-5.48,7.32,0,4.4,2.74,6.4,5.48,6.4,3.51,0,5.52-2.35,5.49-6.36C170.25,11.67,166,11.14,164.76,11.14Zm0,10c-1.21,0-1.83-.91-1.83-2.74,0-1.65.31-3.65,1.83-3.65s1.84,2,1.83,3.65C166.59,21.13,165.58,21.13,164.76,21.13Z"/><path class="cls-23" d="M175.81,19.43c-1.27,0-5.49.48-5.49,7.31,0,4.41,2.74,6.4,5.49,6.4,3.51,0,5.52-2.35,5.48-6.35C181.29,20,177.07,19.43,175.81,19.43Zm0,10c-1.22,0-1.83-.92-1.83-2.74,0-1.66.3-3.66,1.83-3.66s1.83,2,1.82,3.66C177.63,29.41,176.62,29.41,175.81,29.41Z"/><path class="cls-24" d="M169.78,33.19c-.75-.19-1.32-1-2.24-2.19-1.62-2.2-3.82-5.23-9.24-5.23-5,0-6.49,2.36-7.68,4.26a6,6,0,0,1-3.91,3.23c-5.39,1.77-6.19,7.85-5.86,11A7.3,7.3,0,0,0,143,49.48c2.82,3,8,4.29,15.31,3.9a25.13,25.13,0,0,0,2.74.13c3.3,0,8.56-.49,11.8-3.43a8.75,8.75,0,0,0,2.95-6.83C175.78,40,174.5,34.11,169.78,33.19Zm.64,14.15c-3,2.72-9.62,2.63-11.88,2.38h-.33c-7.73.43-11.07-1.22-12.5-2.68a3.72,3.72,0,0,1-1.21-2.65V44c0-.24-.65-5.9,3.28-7.22a9.49,9.49,0,0,0,6-4.75c1-1.62,1.6-2.54,4.58-2.54,3.52,0,4.8,1.73,6.27,3.73,1.05,1.43,2.24,3.06,4.4,3.6,3,.6,3.12,6.43,3.12,6.48A5.17,5.17,0,0,1,170.42,47.34Z"/></g><g id="vet-icon-nav-7" data-name="vet-icon-nav" class="cls-2"><path class="cls-25" d="M197.84-11.57c-1.26,0-5.49.48-5.49,7.31,0,4.41,2.74,6.4,5.49,6.4,3.51,0,5.52-2.35,5.48-6.35C203.32-11,199.09-11.57,197.84-11.57Zm0,10c-1.21,0-1.83-.92-1.83-2.74C196-6,196.32-8,197.84-8s1.84,2,1.82,3.66C199.66-1.59,198.66-1.59,197.84-1.59Z"/><path class="cls-26" d="M226.78,2.19c-.75-.19-1.32-1-2.24-2.19-1.62-2.2-3.82-5.23-9.24-5.23-5,0-6.49,2.36-7.68,4.26a6,6,0,0,1-3.91,3.23c-5.39,1.77-6.19,7.85-5.86,11A7.3,7.3,0,0,0,200,18.48c2.82,3,8,4.29,15.31,3.9a25.13,25.13,0,0,0,2.74.13c3.3,0,8.56-.49,11.8-3.43a8.75,8.75,0,0,0,2.95-6.83C232.78,9,231.5,3.11,226.78,2.19Zm.64,14.15c-3,2.72-9.62,2.63-11.88,2.38h-.33c-7.73.43-11.07-1.22-12.5-2.68a3.72,3.72,0,0,1-1.21-2.65V13c0-.24-.65-5.9,3.28-7.22a9.49,9.49,0,0,0,6-4.75c1-1.62,1.6-2.54,4.58-2.54,3.52,0,4.8,1.73,6.27,3.73,1.05,1.43,2.24,3.06,4.4,3.6,3,.6,3.12,6.43,3.12,6.48A5.17,5.17,0,0,1,227.42,16.34Z"/></g><g id="vet-icon-nav-8" data-name="vet-icon-nav" class="cls-2"><path class="cls-27" d="M145.74,87.61c-1.25,0-5.49.48-5.49,7.31,0,4.41,2.75,6.4,5.49,6.4,3.51,0,5.52-2.35,5.48-6.35C151.22,88.14,147,87.61,145.74,87.61Zm0,10c-1.21,0-1.83-.91-1.83-2.74,0-1.66.31-3.66,1.83-3.66s1.84,2,1.83,3.66C147.57,97.59,146.56,97.59,145.74,97.59Z"/><path class="cls-28" d="M156.78,79.32c-1.26,0-5.48.49-5.48,7.32,0,4.4,2.74,6.4,5.48,6.4,3.51,0,5.52-2.35,5.49-6.36C162.27,79.85,158,79.32,156.78,79.32Zm0,10c-1.21,0-1.83-.92-1.83-2.75,0-1.65.31-3.65,1.83-3.65s1.84,2,1.83,3.65C158.61,89.32,157.61,89.32,156.78,89.32Z"/><path class="cls-29" d="M169.66,79.32c-1.26,0-5.48.49-5.48,7.32,0,4.4,2.74,6.4,5.48,6.4,3.52,0,5.53-2.35,5.49-6.36C175.15,79.85,170.93,79.32,169.66,79.32Zm0,10c-1.21,0-1.82-.92-1.82-2.75,0-1.65.31-3.65,1.82-3.65s1.84,2,1.83,3.65C171.49,89.32,170.49,89.32,169.66,89.32Z"/><path class="cls-30" d="M180.71,87.61c-1.26,0-5.49.48-5.49,7.31,0,4.41,2.75,6.4,5.49,6.4,3.51,0,5.52-2.35,5.48-6.35C186.19,88.14,182,87.61,180.71,87.61Zm0,10c-1.22,0-1.83-.91-1.83-2.74,0-1.66.3-3.66,1.83-3.66s1.84,2,1.83,3.66C182.54,97.59,181.52,97.59,180.71,97.59Z"/><path class="cls-31" d="M174.68,101.38c-.75-.2-1.32-1-2.24-2.2C170.83,97,168.62,94,163.2,94c-5,0-6.49,2.36-7.68,4.26a6,6,0,0,1-3.9,3.23c-5.4,1.77-6.2,7.85-5.86,11a7.26,7.26,0,0,0,2.13,5.25c2.81,3,8,4.3,15.3,3.9a25.25,25.25,0,0,0,2.74.13c3.3,0,8.56-.48,11.81-3.43a8.78,8.78,0,0,0,2.94-6.83C180.68,108.14,179.4,102.29,174.68,101.38Zm.64,14.14c-3,2.72-9.61,2.63-11.88,2.38h-.33c-7.73.43-11.06-1.22-12.5-2.68a3.72,3.72,0,0,1-1.21-2.64v-.43c0-.24-.64-5.9,3.29-7.22a9.51,9.51,0,0,0,6-4.75c1-1.62,1.6-2.53,4.57-2.53,3.53,0,4.81,1.72,6.27,3.72,1.05,1.43,2.24,3.06,4.41,3.6,3,.6,3.11,6.43,3.11,6.48A5.1,5.1,0,0,1,175.32,115.52Z"/></g><g id="vet-icon-nav-9" data-name="vet-icon-nav" class="cls-2"><path class="cls-32" d="M32.74,88.61c-1.25,0-5.49.48-5.49,7.31,0,4.41,2.75,6.4,5.49,6.4,3.51,0,5.52-2.35,5.48-6.35C38.22,89.14,34,88.61,32.74,88.61Zm0,10c-1.21,0-1.83-.91-1.83-2.74,0-1.66.31-3.66,1.83-3.66s1.84,2,1.83,3.66C34.57,98.59,33.56,98.59,32.74,98.59Z"/><path class="cls-33" d="M43.78,80.32c-1.26,0-5.48.49-5.48,7.32C38.3,92,41,94,43.78,94c3.51,0,5.52-2.35,5.49-6.36C49.27,80.85,45,80.32,43.78,80.32Zm0,10c-1.21,0-1.83-.92-1.83-2.75,0-1.65.31-3.65,1.83-3.65s1.84,2,1.83,3.65C45.61,90.32,44.61,90.32,43.78,90.32Z"/><path class="cls-34" d="M56.66,80.32c-1.26,0-5.48.49-5.48,7.32,0,4.4,2.74,6.4,5.48,6.4,3.52,0,5.53-2.35,5.49-6.36C62.15,80.85,57.93,80.32,56.66,80.32Zm0,10c-1.21,0-1.82-.92-1.82-2.75,0-1.65.31-3.65,1.82-3.65s1.84,2,1.83,3.65C58.49,90.32,57.49,90.32,56.66,90.32Z"/><path class="cls-35" d="M67.71,88.61c-1.26,0-5.49.48-5.49,7.31,0,4.41,2.75,6.4,5.49,6.4,3.51,0,5.52-2.35,5.48-6.35C73.19,89.14,69,88.61,67.71,88.61Zm0,10c-1.22,0-1.83-.91-1.83-2.74,0-1.66.3-3.66,1.83-3.66s1.84,2,1.83,3.66C69.54,98.59,68.52,98.59,67.71,98.59Z"/><path class="cls-36" d="M61.68,102.38c-.75-.2-1.32-1-2.24-2.2C57.83,98,55.62,95,50.2,95c-5,0-6.49,2.36-7.68,4.26a6,6,0,0,1-3.9,3.23c-5.4,1.77-6.2,7.85-5.86,11a7.26,7.26,0,0,0,2.13,5.25c2.81,3,8,4.3,15.3,3.9a25.25,25.25,0,0,0,2.74.13c3.3,0,8.56-.48,11.81-3.43a8.78,8.78,0,0,0,2.94-6.83C67.68,109.14,66.4,103.29,61.68,102.38Zm.64,14.14c-3,2.72-9.61,2.63-11.88,2.38h-.33c-7.73.43-11.06-1.22-12.5-2.68a3.72,3.72,0,0,1-1.21-2.64v-.43c0-.24-.64-5.9,3.29-7.22a9.51,9.51,0,0,0,6-4.75c1-1.62,1.6-2.53,4.57-2.53,3.53,0,4.81,1.72,6.27,3.72,1,1.43,2.24,3.06,4.41,3.6,3,.6,3.11,6.43,3.11,6.48A5.1,5.1,0,0,1,62.32,116.52Z"/></g><g id="vet-icon-nav-10" data-name="vet-icon-nav" class="cls-2"><path class="cls-37" d="M89.74-17.39c-1.25,0-5.49.48-5.49,7.31,0,4.41,2.75,6.4,5.49,6.4,3.51,0,5.52-2.35,5.48-6.35C95.22-16.86,91-17.39,89.74-17.39Zm0,10c-1.21,0-1.83-.91-1.83-2.74,0-1.66.31-3.66,1.83-3.66s1.84,2,1.83,3.66C91.57-7.41,90.56-7.41,89.74-7.41Z"/><path class="cls-38" d="M100.78-25.68c-1.26,0-5.48.49-5.48,7.32C95.3-14,98-12,100.78-12c3.51,0,5.52-2.35,5.49-6.36C106.27-25.15,102-25.68,100.78-25.68Zm0,10c-1.21,0-1.83-.92-1.83-2.75,0-1.65.31-3.65,1.83-3.65s1.84,2,1.83,3.65C102.61-15.68,101.61-15.68,100.78-15.68Z"/><path class="cls-39" d="M113.66-25.68c-1.26,0-5.48.49-5.48,7.32,0,4.4,2.74,6.4,5.48,6.4,3.52,0,5.53-2.35,5.49-6.36C119.15-25.15,114.93-25.68,113.66-25.68Zm0,10c-1.21,0-1.82-.92-1.82-2.75,0-1.65.31-3.65,1.82-3.65s1.84,2,1.83,3.65C115.49-15.68,114.49-15.68,113.66-15.68Z"/><path class="cls-40" d="M124.71-17.39c-1.26,0-5.49.48-5.49,7.31,0,4.41,2.75,6.4,5.49,6.4,3.51,0,5.52-2.35,5.48-6.35C130.19-16.86,126-17.39,124.71-17.39Zm0,10c-1.22,0-1.83-.91-1.83-2.74,0-1.66.3-3.66,1.83-3.66s1.84,2,1.83,3.66C126.54-7.41,125.52-7.41,124.71-7.41Z"/><path class="cls-41" d="M118.68-3.62c-.75-.2-1.32-1-2.24-2.2C114.83-8,112.62-11,107.2-11c-5,0-6.49,2.36-7.68,4.26a6,6,0,0,1-3.9,3.23c-5.4,1.77-6.2,7.85-5.86,11a7.26,7.26,0,0,0,2.13,5.25c2.81,3,8,4.3,15.3,3.9a25.25,25.25,0,0,0,2.74.13c3.3,0,8.56-.48,11.81-3.43a8.78,8.78,0,0,0,2.94-6.83C124.68,3.14,123.4-2.71,118.68-3.62Zm.64,14.14c-3,2.72-9.61,2.63-11.88,2.38h-.33c-7.73.43-11.06-1.22-12.5-2.68A3.72,3.72,0,0,1,93.4,7.57V7.14c0-.24-.64-5.9,3.29-7.22a9.51,9.51,0,0,0,6-4.75c1-1.62,1.6-2.53,4.57-2.53,3.53,0,4.81,1.72,6.27,3.72,1,1.43,2.24,3.06,4.41,3.6,3,.6,3.11,6.43,3.11,6.48A5.1,5.1,0,0,1,119.32,10.52Z"/></g><g id="vet-icon-nav-11" data-name="vet-icon-nav" class="cls-2"><path class="cls-42" d="M89.74,57.61c-1.25,0-5.49.48-5.49,7.31,0,4.41,2.75,6.4,5.49,6.4,3.51,0,5.52-2.35,5.48-6.35C95.22,58.14,91,57.61,89.74,57.61Zm0,10c-1.21,0-1.83-.91-1.83-2.74,0-1.66.31-3.66,1.83-3.66s1.84,2,1.83,3.66C91.57,67.59,90.56,67.59,89.74,67.59Z"/><path class="cls-43" d="M100.78,49.32c-1.26,0-5.48.49-5.48,7.32C95.3,61,98,63,100.78,63c3.51,0,5.52-2.35,5.49-6.36C106.27,49.85,102,49.32,100.78,49.32Zm0,10c-1.21,0-1.83-.92-1.83-2.75,0-1.65.31-3.65,1.83-3.65s1.84,2,1.83,3.65C102.61,59.32,101.61,59.32,100.78,59.32Z"/><path class="cls-44" d="M113.66,49.32c-1.26,0-5.48.49-5.48,7.32,0,4.4,2.74,6.4,5.48,6.4,3.52,0,5.53-2.35,5.49-6.36C119.15,49.85,114.93,49.32,113.66,49.32Zm0,10c-1.21,0-1.82-.92-1.82-2.75,0-1.65.31-3.65,1.82-3.65s1.84,2,1.83,3.65C115.49,59.32,114.49,59.32,113.66,59.32Z"/><path class="cls-45" d="M124.71,57.61c-1.26,0-5.49.48-5.49,7.31,0,4.41,2.75,6.4,5.49,6.4,3.51,0,5.52-2.35,5.48-6.35C130.19,58.14,126,57.61,124.71,57.61Zm0,10c-1.22,0-1.83-.91-1.83-2.74,0-1.66.3-3.66,1.83-3.66s1.84,2,1.83,3.66C126.54,67.59,125.52,67.59,124.71,67.59Z"/><path class="cls-46" d="M118.68,71.38c-.75-.2-1.32-1-2.24-2.2C114.83,67,112.62,64,107.2,64c-5,0-6.49,2.36-7.68,4.26a6,6,0,0,1-3.9,3.23c-5.4,1.77-6.2,7.85-5.86,11a7.26,7.26,0,0,0,2.13,5.25c2.81,3,8,4.3,15.3,3.9a25.25,25.25,0,0,0,2.74.13c3.3,0,8.56-.48,11.81-3.43a8.78,8.78,0,0,0,2.94-6.83C124.68,78.14,123.4,72.29,118.68,71.38Zm.64,14.14c-3,2.72-9.61,2.63-11.88,2.38h-.33c-7.73.43-11.06-1.22-12.5-2.68a3.72,3.72,0,0,1-1.21-2.64v-.43c0-.24-.64-5.9,3.29-7.22a9.51,9.51,0,0,0,6-4.75c1-1.62,1.6-2.53,4.57-2.53,3.53,0,4.81,1.72,6.27,3.72,1,1.43,2.24,3.06,4.41,3.6,3,.6,3.11,6.43,3.11,6.48A5.1,5.1,0,0,1,119.32,85.52Z"/></g><g id="vet-icon-nav-12" data-name="vet-icon-nav" class="cls-2"><path class="cls-47" d="M37.64,18.43c-1.25,0-5.48.48-5.48,7.31,0,4.41,2.74,6.4,5.48,6.4,3.51,0,5.52-2.35,5.49-6.35C43.13,19,38.89,18.43,37.64,18.43Zm0,10c-1.21,0-1.83-.92-1.83-2.74,0-1.66.31-3.66,1.83-3.66s1.85,2,1.83,3.66C39.47,28.41,38.46,28.41,37.64,28.41Z"/><path class="cls-48" d="M48.69,10.14c-1.27,0-5.49.49-5.49,7.32,0,4.4,2.74,6.4,5.49,6.4,3.51,0,5.52-2.35,5.48-6.36C54.17,10.67,50,10.14,48.69,10.14Zm0,10c-1.22,0-1.83-.91-1.83-2.74,0-1.65.31-3.65,1.83-3.65s1.83,2,1.82,3.65C50.51,20.13,49.51,20.13,48.69,20.13Z"/><path class="cls-49" d="M61.57,10.14c-1.26,0-5.49.49-5.49,7.32,0,4.4,2.74,6.4,5.49,6.4,3.51,0,5.52-2.35,5.48-6.36C67.05,10.67,62.83,10.14,61.57,10.14Zm0,10c-1.22,0-1.83-.91-1.83-2.74,0-1.65.31-3.65,1.83-3.65s1.84,2,1.83,3.65C63.4,20.13,62.39,20.13,61.57,20.13Z"/><path class="cls-50" d="M72.61,18.43c-1.26,0-5.48.48-5.48,7.31,0,4.41,2.74,6.4,5.48,6.4,3.51,0,5.52-2.35,5.49-6.35C78.1,19,73.87,18.43,72.61,18.43Zm0,10c-1.21,0-1.83-.92-1.83-2.74,0-1.66.3-3.66,1.83-3.66s1.84,2,1.83,3.66C74.44,28.41,73.43,28.41,72.61,28.41Z"/><path class="cls-51" d="M66.59,32.19c-.75-.19-1.33-1-2.24-2.19-1.62-2.2-3.82-5.23-9.25-5.23-5,0-6.49,2.36-7.68,4.26a6,6,0,0,1-3.9,3.23c-5.39,1.77-6.2,7.85-5.86,11a7.26,7.26,0,0,0,2.13,5.25c2.82,3,8,4.29,15.3,3.9a25.31,25.31,0,0,0,2.75.13c3.3,0,8.55-.49,11.8-3.43a8.71,8.71,0,0,0,2.94-6.83C72.58,39,71.3,33.11,66.59,32.19Zm.64,14.15c-3.06,2.72-9.62,2.63-11.89,2.38H55C47.29,49.14,44,47.49,42.51,46a3.67,3.67,0,0,1-1.2-2.65V43c0-.24-.65-5.9,3.28-7.22a9.49,9.49,0,0,0,6-4.75c1-1.62,1.6-2.54,4.57-2.54,3.53,0,4.81,1.73,6.27,3.73,1.05,1.43,2.24,3.06,4.41,3.6,3,.6,3.12,6.43,3.12,6.48A5.17,5.17,0,0,1,67.23,46.34Z"/></g><g id="vet-icon-nav-13" data-name="vet-icon-nav" class="cls-2"><path class="cls-52" d="M16.61-11.57c-1.26,0-5.48.48-5.48,7.31,0,4.41,2.74,6.4,5.48,6.4,3.51,0,5.52-2.35,5.49-6.35C22.1-11,17.87-11.57,16.61-11.57Zm0,10c-1.21,0-1.83-.92-1.83-2.74C14.78-6,15.08-8,16.61-8s1.84,2,1.83,3.66C18.44-1.59,17.43-1.59,16.61-1.59Z"/><path class="cls-53" d="M10.59,2.19C9.84,2,9.26,1.23,8.35,0,6.73-2.2,4.53-5.23-.9-5.23c-5,0-6.49,2.36-7.68,4.26a6,6,0,0,1-3.9,3.23c-5.39,1.77-6.2,7.85-5.86,11a7.26,7.26,0,0,0,2.13,5.25c2.82,3,8,4.29,15.3,3.9a25.31,25.31,0,0,0,2.75.13c3.3,0,8.55-.49,11.8-3.43a8.71,8.71,0,0,0,2.94-6.83C16.58,9,15.3,3.11,10.59,2.19Zm.64,14.15C8.17,19.06,1.61,19-.66,18.72H-1C-8.71,19.14-12,17.49-13.49,16a3.67,3.67,0,0,1-1.2-2.65V13c0-.24-.65-5.9,3.28-7.22A9.49,9.49,0,0,0-5.44,1c1-1.62,1.6-2.54,4.57-2.54C2.66-1.55,3.94.18,5.4,2.18c1,1.43,2.24,3.06,4.41,3.6,3,.6,3.12,6.43,3.12,6.48A5.17,5.17,0,0,1,11.23,16.34Z"/></g></pattern></defs><title>background-paws-1920x1080</title><g id="Layer_2" data-name="Layer 2"><g id="Layer_1-2" data-name="Layer 1"><rect class="cls-54" width="1920" height="1080"/></g></g></svg>