<svg xmlns="http://www.w3.org/2000/svg" xmlns:xlink="http://www.w3.org/1999/xlink" viewBox="0 0 1125 1218"><defs><style>.cls-1{fill:none;}.cls-2{opacity:0.2;}.cls-3{fill:url(#radial-gradient);}.cls-4{fill:url(#radial-gradient-2);}.cls-5{fill:url(#radial-gradient-3);}.cls-6{fill:url(#radial-gradient-4);}.cls-7{fill:url(#radial-gradient-5);}.cls-8{fill:url(#radial-gradient-6);}.cls-9{fill:url(#radial-gradient-7);}.cls-10{fill:url(#radial-gradient-8);}.cls-11{fill:url(#radial-gradient-9);}.cls-12{fill:url(#radial-gradient-10);}.cls-13{fill:url(#radial-gradient-11);}.cls-14{fill:url(#radial-gradient-12);}.cls-15{fill:url(#radial-gradient-13);}.cls-16{fill:url(#radial-gradient-14);}.cls-17{fill:url(#radial-gradient-15);}.cls-18{fill:url(#radial-gradient-16);}.cls-19{fill:url(#radial-gradient-17);}.cls-20{fill:url(#radial-gradient-18);}.cls-21{fill:url(#radial-gradient-19);}.cls-22{fill:url(#radial-gradient-20);}.cls-23{fill:url(#radial-gradient-21);}.cls-24{fill:url(#radial-gradient-22);}.cls-25{fill:url(#radial-gradient-23);}.cls-26{fill:url(#radial-gradient-24);}.cls-27{fill:url(#radial-gradient-25);}.cls-28{fill:url(#radial-gradient-26);}.cls-29{fill:url(#radial-gradient-27);}.cls-30{fill:url(#radial-gradient-28);}.cls-31{fill:url(#radial-gradient-29);}.cls-32{fill:url(#radial-gradient-30);}.cls-33{fill:url(#radial-gradient-31);}.cls-34{fill:url(#radial-gradient-32);}.cls-35{fill:url(#radial-gradient-33);}.cls-36{fill:url(#radial-gradient-34);}.cls-37{fill:url(#radial-gradient-35);}.cls-38{fill:url(#radial-gradient-36);}.cls-39{fill:url(#radial-gradient-37);}.cls-40{fill:url(#radial-gradient-38);}.cls-41{fill:url(#radial-gradient-39);}.cls-42{fill:url(#radial-gradient-40);}.cls-43{fill:url(#radial-gradient-41);}.cls-44{fill:url(#radial-gradient-42);}.cls-45{fill:url(#radial-gradient-43);}.cls-46{fill:url(#radial-gradient-44);}.cls-47{fill:url(#radial-gradient-45);}.cls-48{fill:url(#radial-gradient-46);}.cls-49{fill:url(#radial-gradient-47);}.cls-50{fill:url(#radial-gradient-48);}.cls-51{fill:url(#radial-gradient-49);}.cls-52{fill:url(#radial-gradient-50);}.cls-53{fill:url(#radial-gradient-51);}.cls-54{fill:url(#Bugaboo);}</style><radialGradient id="radial-gradient" cx="-23420.44" cy="4150.02" r="10.66" gradientTransform="translate(23725.03 -3952.44)" gradientUnits="userSpaceOnUse"><stop offset="0" stop-color="#fb8500"/><stop offset="1" stop-color="#fb8500"/></radialGradient><radialGradient id="radial-gradient-2" cx="-23390.48" cy="4127.08" r="27.11" xlink:href="#radial-gradient"/><radialGradient id="radial-gradient-3" cx="-23421.44" cy="-31251.98" r="10.66" gradientTransform="matrix(1, 0, 0, -1, 23725.03, -31168.16)" xlink:href="#radial-gradient"/><radialGradient id="radial-gradient-4" cx="-23402.48" cy="-31237.76" r="10.66" gradientTransform="matrix(1, 0, 0, -1, 23725.03, -31168.16)" xlink:href="#radial-gradient"/><radialGradient id="radial-gradient-5" cx="-23391.48" cy="-31274.92" r="27.11" gradientTransform="matrix(1, 0, 0, -1, 23725.03, -31168.16)" xlink:href="#radial-gradient"/><radialGradient id="radial-gradient-6" cx="-23588.55" cy="-31347.07" r="10.66" gradientTransform="matrix(1, 0, 0, -1, 23725.03, -31168.16)" xlink:href="#radial-gradient"/><radialGradient id="radial-gradient-7" cx="-23569.58" cy="-31332.85" r="10.66" gradientTransform="matrix(1, 0, 0, -1, 23725.03, -31168.16)" xlink:href="#radial-gradient"/><radialGradient id="radial-gradient-8" cx="-23547.46" cy="-31332.85" r="10.66" gradientTransform="matrix(1, 0, 0, -1, 23725.03, -31168.16)" xlink:href="#radial-gradient"/><radialGradient id="radial-gradient-9" cx="-23528.49" cy="-31347.07" r="10.66" gradientTransform="matrix(1, 0, 0, -1, 23725.03, -31168.16)" xlink:href="#radial-gradient"/><radialGradient id="radial-gradient-10" cx="-23558.58" cy="-31370.01" r="27.11" gradientTransform="matrix(1, 0, 0, -1, 23725.03, -31168.16)" xlink:href="#radial-gradient"/><radialGradient id="radial-gradient-11" cx="-23694.6" cy="4150.02" r="10.66" xlink:href="#radial-gradient"/><radialGradient id="radial-gradient-12" cx="-23724.69" cy="4127.08" r="27.11" xlink:href="#radial-gradient"/><radialGradient id="radial-gradient-13" cx="-23714.57" cy="-31237.76" r="10.66" gradientTransform="matrix(1, 0, 0, -1, 23725.03, -31168.16)" xlink:href="#radial-gradient"/><radialGradient id="radial-gradient-14" cx="-23695.6" cy="-31251.98" r="10.66" gradientTransform="matrix(1, 0, 0, -1, 23725.03, -31168.16)" xlink:href="#radial-gradient"/><radialGradient id="radial-gradient-15" cx="-23725.69" cy="-31274.92" r="27.11" gradientTransform="matrix(1, 0, 0, -1, 23725.03, -31168.16)" xlink:href="#radial-gradient"/><radialGradient id="radial-gradient-16" cx="-23420.44" cy="3959.84" r="10.66" xlink:href="#radial-gradient"/><radialGradient id="radial-gradient-17" cx="-23401.48" cy="3974.07" r="10.66" xlink:href="#radial-gradient"/><radialGradient id="radial-gradient-18" cx="-23390.48" cy="3936.91" r="27.11" xlink:href="#radial-gradient"/><radialGradient id="radial-gradient-19" cx="-23503.44" cy="-31211.8" r="10.66" gradientTransform="matrix(1, 0, 0, -1, 23725.03, -31168.16)" xlink:href="#radial-gradient"/><radialGradient id="radial-gradient-20" cx="-23484.48" cy="-31197.58" r="10.66" gradientTransform="matrix(1, 0, 0, -1, 23725.03, -31168.16)" xlink:href="#radial-gradient"/><radialGradient id="radial-gradient-21" cx="-23462.35" cy="-31197.58" r="10.66" gradientTransform="matrix(1, 0, 0, -1, 23725.03, -31168.16)" xlink:href="#radial-gradient"/><radialGradient id="radial-gradient-22" cx="-23443.39" cy="-31211.8" r="10.66" gradientTransform="matrix(1, 0, 0, -1, 23725.03, -31168.16)" xlink:href="#radial-gradient"/><radialGradient id="radial-gradient-23" cx="-23473.48" cy="-31234.74" r="27.11" gradientTransform="matrix(1, 0, 0, -1, 23725.03, -31168.16)" xlink:href="#radial-gradient"/><radialGradient id="radial-gradient-24" cx="-23587.55" cy="4054.93" r="10.66" xlink:href="#radial-gradient"/><radialGradient id="radial-gradient-25" cx="-23568.58" cy="4069.16" r="10.66" xlink:href="#radial-gradient"/><radialGradient id="radial-gradient-26" cx="-23546.46" cy="4069.16" r="10.66" xlink:href="#radial-gradient"/><radialGradient id="radial-gradient-27" cx="-23527.49" cy="4054.93" r="10.66" xlink:href="#radial-gradient"/><radialGradient id="radial-gradient-28" cx="-23557.58" cy="4032" r="27.11" xlink:href="#radial-gradient"/><radialGradient id="radial-gradient-29" cx="-23670.55" cy="-31306.89" r="10.66" gradientTransform="matrix(1, 0, 0, -1, 23725.03, -31168.16)" xlink:href="#radial-gradient"/><radialGradient id="radial-gradient-30" cx="-23651.58" cy="-31292.67" r="10.66" gradientTransform="matrix(1, 0, 0, -1, 23725.03, -31168.16)" xlink:href="#radial-gradient"/><radialGradient id="radial-gradient-31" cx="-23629.46" cy="-31292.67" r="10.66" gradientTransform="matrix(1, 0, 0, -1, 23725.03, -31168.16)" xlink:href="#radial-gradient"/><radialGradient id="radial-gradient-32" cx="-23610.49" cy="-31306.89" r="10.66" gradientTransform="matrix(1, 0, 0, -1, 23725.03, -31168.16)" xlink:href="#radial-gradient"/><radialGradient id="radial-gradient-33" cx="-23640.58" cy="-31329.83" r="27.11" gradientTransform="matrix(1, 0, 0, -1, 23725.03, -31168.16)" xlink:href="#radial-gradient"/><radialGradient id="radial-gradient-34" cx="-23503.55" cy="-31298.89" r="10.66" gradientTransform="matrix(1, 0, 0, -1, 23725.03, -31168.16)" xlink:href="#radial-gradient"/><radialGradient id="radial-gradient-35" cx="-23484.58" cy="-31284.67" r="10.66" gradientTransform="matrix(1, 0, 0, -1, 23725.03, -31168.16)" xlink:href="#radial-gradient"/><radialGradient id="radial-gradient-36" cx="-23462.46" cy="-31284.67" r="10.66" gradientTransform="matrix(1, 0, 0, -1, 23725.03, -31168.16)" xlink:href="#radial-gradient"/><radialGradient id="radial-gradient-37" cx="-23443.49" cy="-31298.89" r="10.66" gradientTransform="matrix(1, 0, 0, -1, 23725.03, -31168.16)" xlink:href="#radial-gradient"/><radialGradient id="radial-gradient-38" cx="-23473.58" cy="-31321.83" r="27.11" gradientTransform="matrix(1, 0, 0, -1, 23725.03, -31168.16)" xlink:href="#radial-gradient"/><radialGradient id="radial-gradient-39" cx="-23588.55" cy="-31156.89" r="10.66" gradientTransform="matrix(1, 0, 0, -1, 23725.03, -31168.16)" xlink:href="#radial-gradient"/><radialGradient id="radial-gradient-40" cx="-23569.58" cy="-31142.67" r="10.66" gradientTransform="matrix(1, 0, 0, -1, 23725.03, -31168.16)" xlink:href="#radial-gradient"/><radialGradient id="radial-gradient-41" cx="-23547.46" cy="-31142.67" r="10.66" gradientTransform="matrix(1, 0, 0, -1, 23725.03, -31168.16)" xlink:href="#radial-gradient"/><radialGradient id="radial-gradient-42" cx="-23528.49" cy="-31156.89" r="10.66" gradientTransform="matrix(1, 0, 0, -1, 23725.03, -31168.16)" xlink:href="#radial-gradient"/><radialGradient id="radial-gradient-43" cx="-23558.58" cy="-31179.83" r="27.11" gradientTransform="matrix(1, 0, 0, -1, 23725.03, -31168.16)" xlink:href="#radial-gradient"/><radialGradient id="radial-gradient-44" cx="-23713.57" cy="3974.07" r="10.66" xlink:href="#radial-gradient"/><radialGradient id="radial-gradient-45" cx="-23694.6" cy="3959.84" r="10.66" xlink:href="#radial-gradient"/><radialGradient id="radial-gradient-46" cx="-23724.69" cy="3936.91" r="27.11" xlink:href="#radial-gradient"/><radialGradient id="radial-gradient-47" cx="-23670.65" cy="-31203.8" r="10.66" gradientTransform="matrix(1, 0, 0, -1, 23725.03, -31168.16)" xlink:href="#radial-gradient"/><radialGradient id="radial-gradient-48" cx="-23651.69" cy="-31189.58" r="10.66" gradientTransform="matrix(1, 0, 0, -1, 23725.03, -31168.16)" xlink:href="#radial-gradient"/><radialGradient id="radial-gradient-49" cx="-23629.57" cy="-31189.58" r="10.66" gradientTransform="matrix(1, 0, 0, -1, 23725.03, -31168.16)" xlink:href="#radial-gradient"/><radialGradient id="radial-gradient-50" cx="-23610.6" cy="-31203.8" r="10.66" gradientTransform="matrix(1, 0, 0, -1, 23725.03, -31168.16)" xlink:href="#radial-gradient"/><radialGradient id="radial-gradient-51" cx="-23640.69" cy="-31226.74" r="27.11" gradientTransform="matrix(1, 0, 0, -1, 23725.03, -31168.16)" xlink:href="#radial-gradient"/><pattern id="Bugaboo" data-name="Bugaboo" width="334.21" height="190.18" patternTransform="translate(0 -46.5)" patternUnits="userSpaceOnUse" viewBox="0 0 334.21 190.18"><rect class="cls-1" width="334.21" height="190.18"/><g id="vet-icon-nav" class="cls-2"><path class="cls-3" d="M314,196.72c.07-6.88-3.39-10.91-9.42-10.91-4.71,0-9.42,3.42-9.42,11,0,11.73,7.27,12.56,9.42,12.56S314,208.45,314,196.72Zm-6.28.2c0,2.85-.47,6.28-3.14,6.28s-3.14-3.43-3.14-6.28c0-3.14,1.07-4.71,3.14-4.71C306,192.21,307.73,192.21,307.73,196.92Z"/><path class="cls-4" d="M364.6,168.44a15,15,0,0,0-5.06-11.73c-5.57-5.05-14.6-5.88-20.27-5.88a41.25,41.25,0,0,0-4.71.22c-12.56-.68-21.44,1.57-26.28,6.7a12.56,12.56,0,0,0-3.66,9c-.58,5.36.8,15.8,10.07,18.84a10.32,10.32,0,0,1,6.7,5.55c2,3.26,4.59,7.31,13.19,7.31,9.31,0,13.09-5.19,15.87-9,1.57-2.12,2.56-3.44,3.85-3.77C362.4,184.14,364.6,174.1,364.6,168.44Zm-6.28,0c0,.09-.19,10.09-5.35,11.13-3.73.93-5.77,3.72-7.57,6.19-2.51,3.42-4.71,6.39-10.77,6.39-5.11,0-6.08-1.57-7.85-4.35a16.36,16.36,0,0,0-10.26-8.17c-6.75-2.26-5.68-12-5.63-12.39v-.73A6.34,6.34,0,0,1,313,162c2.47-2.51,8.2-5.34,21.46-4.6h.29l.28,0c3.89-.44,15.17-.59,20.41,4.08A8.87,8.87,0,0,1,358.32,168.43Z"/></g><g id="vet-icon-nav-2" data-name="vet-icon-nav" class="cls-2"><path class="cls-5" d="M303.59,72.05c-2.15,0-9.42.83-9.42,12.56,0,7.57,4.71,11,9.42,11,6,0,9.49-4,9.42-10.91C313,73,305.74,72.05,303.59,72.05Zm0,17.14c-2.07,0-3.14-1.57-3.14-4.71,0-2.84.54-6.28,3.14-6.28s3.17,3.44,3.14,6.28C306.73,89.19,305,89.19,303.59,89.19Z"/><path class="cls-6" d="M322.56,57.83c-2.17,0-9.42.83-9.42,12.56,0,7.56,4.71,11,9.42,11,6,0,9.48-4,9.42-10.92C332,58.74,324.73,57.83,322.56,57.83Zm0,17.16q-3.13,0-3.14-4.71c0-2.85.53-6.28,3.14-6.28s3.15,3.43,3.14,6.28C325.7,75,324,75,322.56,75Z"/><path class="cls-7" d="M353.3,95.69c-1.29-.33-2.28-1.64-3.85-3.76-2.78-3.79-6.56-9-15.87-9-8.6,0-11.15,4-13.19,7.31a10.28,10.28,0,0,1-6.7,5.54c-9.27,3-10.65,13.49-10.07,18.85a12.56,12.56,0,0,0,3.66,9c4.84,5.13,13.72,7.38,26.28,6.7a41.25,41.25,0,0,0,4.71.22c5.67,0,14.7-.83,20.27-5.89A15,15,0,0,0,363.6,113C363.6,107.31,361.4,97.26,353.3,95.69ZM354.4,120c-5.24,4.68-16.52,4.53-20.41,4.09l-.28,0h-.29c-13.26.74-19-2.09-21.46-4.6a6.34,6.34,0,0,1-2.07-4.54v-.74c-.05-.4-1.12-10.12,5.63-12.38a16.36,16.36,0,0,0,10.26-8.17c1.77-2.78,2.74-4.35,7.85-4.35,6.06,0,8.26,3,10.77,6.39,1.8,2.47,3.84,5.26,7.57,6.19,5.16,1,5.35,11,5.35,11.13A8.85,8.85,0,0,1,354.4,120Z"/></g><g id="vet-icon-nav-3" data-name="vet-icon-nav" class="cls-2"><path class="cls-8" d="M136.49,167.14c-2.16,0-9.42.83-9.42,12.56,0,7.57,4.71,11,9.42,11,6,0,9.48-4,9.42-10.91C145.91,168.05,138.64,167.14,136.49,167.14Zm0,17.14c-2.08,0-3.14-1.57-3.14-4.71,0-2.84.53-6.28,3.14-6.28s3.17,3.44,3.14,6.28C139.63,184.28,137.9,184.28,136.49,184.28Z"/><path class="cls-9" d="M155.45,152.91c-2.16,0-9.42.84-9.42,12.57,0,7.56,4.71,11,9.42,11,6,0,9.49-4,9.42-10.92C164.87,153.83,157.62,152.91,155.45,152.91Zm0,17.17q-3.13,0-3.14-4.71c0-2.85.54-6.28,3.14-6.28s3.16,3.43,3.14,6.28C158.59,170.08,156.87,170.08,155.45,170.08Z"/><path class="cls-10" d="M177.57,152.91c-2.16,0-9.42.84-9.42,12.57,0,7.56,4.71,11,9.42,11,6,0,9.49-4,9.42-10.92C187,153.83,179.74,152.91,177.57,152.91Zm0,17.17c-2.08,0-3.14-1.57-3.14-4.71,0-2.85.54-6.28,3.14-6.28s3.16,3.43,3.14,6.28C180.71,170.08,179,170.08,177.57,170.08Z"/><path class="cls-11" d="M196.54,167.14c-2.17,0-9.42.83-9.42,12.56,0,7.57,4.71,11,9.42,11,6,0,9.48-4,9.42-10.91C206,168.05,198.71,167.14,196.54,167.14Zm0,17.14q-3.14,0-3.14-4.71c0-2.84.52-6.28,3.14-6.28s3.16,3.44,3.14,6.28C199.68,184.28,197.94,184.28,196.54,184.28Z"/><path class="cls-12" d="M186.19,190.78c-1.28-.33-2.27-1.64-3.84-3.76-2.78-3.79-6.57-9-15.88-9-8.6,0-11.14,4.05-13.18,7.31a10.29,10.29,0,0,1-6.71,5.54c-9.26,3.05-10.64,13.49-10.06,18.85a12.48,12.48,0,0,0,3.66,9c4.83,5.13,13.72,7.38,26.28,6.7a41.25,41.25,0,0,0,4.71.22c5.67,0,14.69-.83,20.27-5.89a15,15,0,0,0,5.05-11.72C196.49,202.4,194.3,192.35,186.19,190.78Zm1.1,24.29c-5.24,4.68-16.51,4.52-20.41,4.09l-.28,0h-.28c-13.27.74-19-2.09-21.47-4.6a6.38,6.38,0,0,1-2.07-4.54v-.74c-.05-.4-1.11-10.12,5.64-12.38a16.34,16.34,0,0,0,10.25-8.17c1.77-2.78,2.75-4.35,7.85-4.35,6.06,0,8.26,3,10.77,6.39,1.81,2.47,3.85,5.26,7.57,6.19,5.16,1,5.35,11,5.35,11.13A8.82,8.82,0,0,1,187.29,215.07Z"/></g><g id="vet-icon-nav-4" data-name="vet-icon-nav" class="cls-2"><path class="cls-13" d="M39.85,196.72c.07-6.88-3.39-10.91-9.42-10.91-4.71,0-9.42,3.42-9.42,11,0,11.73,7.26,12.56,9.42,12.56S39.85,208.45,39.85,196.72Zm-6.28.2c0,2.85-.53,6.28-3.14,6.28s-3.14-3.43-3.14-6.28c0-3.14,1.06-4.71,3.14-4.71C31.83,192.21,33.57,192.21,33.57,196.92Z"/><path class="cls-14" d="M30.39,168.44a15,15,0,0,0-5.06-11.73c-5.57-5.05-14.6-5.88-20.27-5.88a41.25,41.25,0,0,0-4.71.22c-12.56-.68-21.45,1.57-26.28,6.7a12.48,12.48,0,0,0-3.66,9c-.58,5.36.8,15.8,10.06,18.84a10.31,10.31,0,0,1,6.71,5.55c2,3.26,4.58,7.31,13.19,7.31,9.31,0,13.09-5.19,15.87-9,1.57-2.12,2.56-3.44,3.85-3.77C28.19,184.14,30.39,174.1,30.39,168.44Zm-6.28,0c0,.09-.19,10.09-5.36,11.13-3.72.93-5.76,3.72-7.57,6.19-2.51,3.42-4.71,6.39-10.77,6.39-5.1,0-6.07-1.57-7.85-4.35a16.34,16.34,0,0,0-10.25-8.17c-6.75-2.26-5.68-12-5.63-12.39v-.73A6.3,6.3,0,0,1-21.25,162c2.46-2.51,8.19-5.34,21.46-4.6H.49l.29,0c3.89-.44,15.16-.59,20.41,4.08A8.9,8.9,0,0,1,24.11,168.43Z"/></g><g id="vet-icon-nav-5" data-name="vet-icon-nav" class="cls-2"><path class="cls-15" d="M10.47,57.83c-2.17,0-9.42.83-9.42,12.56,0,7.56,4.71,11,9.42,11,6,0,9.48-4,9.42-10.92C19.89,58.74,12.63,57.83,10.47,57.83Zm0,17.16q-3.13,0-3.14-4.71c0-2.85.53-6.28,3.14-6.28s3.15,3.43,3.14,6.28C13.61,75,11.88,75,10.47,75Z"/><path class="cls-16" d="M29.43,72.05c-2.16,0-9.42.83-9.42,12.56,0,7.57,4.71,11,9.42,11,6,0,9.49-4,9.42-10.91C38.85,73,31.6,72.05,29.43,72.05Zm0,17.14c-2.08,0-3.14-1.57-3.14-4.71,0-2.84.52-6.28,3.14-6.28s3.16,3.44,3.14,6.28C32.57,89.19,30.83,89.19,29.43,89.19Z"/><path class="cls-17" d="M19.09,95.69c-1.29-.33-2.28-1.64-3.85-3.76-2.78-3.79-6.56-9-15.87-9-8.61,0-11.15,4-13.19,7.31a10.27,10.27,0,0,1-6.71,5.54c-9.26,3-10.64,13.49-10.06,18.85a12.48,12.48,0,0,0,3.66,9c4.83,5.13,13.72,7.38,26.28,6.7a41.25,41.25,0,0,0,4.71.22c5.67,0,14.7-.83,20.27-5.89A15,15,0,0,0,29.39,113C29.39,107.31,27.19,97.26,19.09,95.69ZM20.19,120c-5.25,4.68-16.52,4.53-20.41,4.09l-.29,0H-.79c-13.27.74-19-2.09-21.46-4.6a6.3,6.3,0,0,1-2.07-4.54v-.74c-.05-.4-1.12-10.12,5.63-12.38A16.34,16.34,0,0,0-8.44,93.62c1.78-2.78,2.75-4.35,7.85-4.35,6.06,0,8.26,3,10.77,6.39,1.81,2.47,3.85,5.26,7.57,6.19,5.17,1,5.36,11,5.36,11.13A8.88,8.88,0,0,1,20.19,120Z"/></g><g id="vet-icon-nav-6" data-name="vet-icon-nav" class="cls-2"><path class="cls-18" d="M314,6.54c.07-6.88-3.39-10.91-9.42-10.91-4.71,0-9.42,3.42-9.42,11,0,11.73,7.27,12.56,9.42,12.56S314,18.27,314,6.54Zm-6.28.2c0,2.85-.47,6.28-3.14,6.28s-3.14-3.43-3.14-6.28c0-3.14,1.07-4.71,3.14-4.71C306,2,307.73,2,307.73,6.74Z"/><path class="cls-19" d="M333,20.76c.06-6.87-3.39-10.91-9.42-10.91-4.71,0-9.42,3.43-9.42,11,0,11.73,7.25,12.56,9.42,12.56S333,32.49,333,20.76ZM326.7,21c0,2.84-.6,6.28-3.14,6.28s-3.14-3.44-3.14-6.28q0-4.71,3.14-4.71C325,16.24,326.7,16.24,326.7,21Z"/><path class="cls-20" d="M364.6-21.74a15,15,0,0,0-5.06-11.72c-5.57-5.06-14.6-5.89-20.27-5.89a41.25,41.25,0,0,0-4.71.22c-12.56-.68-21.44,1.57-26.28,6.7a12.56,12.56,0,0,0-3.66,9c-.58,5.36.8,15.8,10.07,18.84A10.32,10.32,0,0,1,321.39,1c2,3.26,4.59,7.31,13.19,7.31,9.31,0,13.09-5.19,15.87-9C352-2.82,353-4.14,354.3-4.47,362.4-6,364.6-16.08,364.6-21.74Zm-6.28,0c0,.09-.19,10.09-5.35,11.13-3.73.93-5.77,3.72-7.57,6.19C342.89-1,340.69,2,334.63,2c-5.11,0-6.08-1.57-7.85-4.35a16.36,16.36,0,0,0-10.26-8.17c-6.75-2.26-5.68-12-5.63-12.39v-.73A6.34,6.34,0,0,1,313-28.22c2.47-2.51,8.2-5.34,21.46-4.6h.29l.28,0c3.89-.44,15.17-.59,20.41,4.09A8.84,8.84,0,0,1,358.32-21.75Z"/></g><g id="vet-icon-nav-7" data-name="vet-icon-nav" class="cls-2"><path class="cls-21" d="M221.59,31.87c-2.15,0-9.42.83-9.42,12.56,0,7.57,4.71,11,9.42,11,6,0,9.49-4,9.42-10.91C231,32.78,223.74,31.87,221.59,31.87Zm0,17.14c-2.07,0-3.14-1.57-3.14-4.71,0-2.84.54-6.28,3.14-6.28s3.17,3.44,3.14,6.28C224.73,49,223,49,221.59,49Z"/><path class="cls-22" d="M240.56,17.65c-2.17,0-9.42.83-9.42,12.56,0,7.56,4.71,11,9.42,11,6,0,9.48-4,9.42-10.92C250,18.56,242.73,17.65,240.56,17.65Zm0,17.16q-3.13,0-3.14-4.71c0-2.85.53-6.28,3.14-6.28s3.15,3.43,3.14,6.28C243.7,34.81,242,34.81,240.56,34.81Z"/><path class="cls-23" d="M262.68,17.65c-2.17,0-9.42.83-9.42,12.56,0,7.56,4.71,11,9.42,11,6,0,9.48-4,9.42-10.92C272.1,18.56,264.85,17.65,262.68,17.65Zm0,17.16q-3.14,0-3.14-4.71c0-2.85.53-6.28,3.14-6.28s3.16,3.43,3.14,6.28C265.82,34.81,264.09,34.81,262.68,34.81Z"/><path class="cls-24" d="M281.65,31.87c-2.17,0-9.42.83-9.42,12.56,0,7.57,4.71,11,9.42,11,6,0,9.48-4,9.42-10.91C291.07,32.78,283.81,31.87,281.65,31.87Zm0,17.14q-3.13,0-3.14-4.71c0-2.84.51-6.28,3.14-6.28s3.15,3.44,3.14,6.28C284.79,49,283,49,281.65,49Z"/><path class="cls-25" d="M271.3,55.52c-1.29-.33-2.28-1.65-3.85-3.77-2.78-3.79-6.56-9-15.87-9-8.6,0-11.15,4-13.19,7.31a10.28,10.28,0,0,1-6.7,5.54c-9.27,3.05-10.65,13.49-10.07,18.85a12.56,12.56,0,0,0,3.66,9c4.84,5.13,13.72,7.38,26.28,6.7a41.25,41.25,0,0,0,4.71.22c5.67,0,14.7-.83,20.27-5.89a15,15,0,0,0,5.06-11.72C281.6,67.13,279.4,57.09,271.3,55.52Zm1.1,24.28c-5.24,4.68-16.52,4.53-20.41,4.09l-.28,0h-.29c-13.26.74-19-2.09-21.46-4.6a6.34,6.34,0,0,1-2.07-4.54V74c0-.4-1.12-10.12,5.63-12.38a16.36,16.36,0,0,0,10.26-8.17c1.77-2.78,2.74-4.35,7.85-4.35,6.06,0,8.26,3,10.77,6.39,1.8,2.47,3.84,5.26,7.57,6.19,5.16,1,5.35,11,5.35,11.13A8.85,8.85,0,0,1,272.4,79.8Z"/></g><g id="vet-icon-nav-8" data-name="vet-icon-nav" class="cls-2"><path class="cls-26" d="M146.91,101.63c.06-6.88-3.4-10.91-9.42-10.91-4.71,0-9.42,3.42-9.42,11,0,11.73,7.26,12.56,9.42,12.56S146.91,113.36,146.91,101.63Zm-6.28.2c0,2.85-.48,6.28-3.14,6.28s-3.14-3.43-3.14-6.28c0-3.14,1.06-4.71,3.14-4.71C138.9,97.12,140.63,97.12,140.63,101.83Z"/><path class="cls-27" d="M165.87,115.85c.07-6.87-3.39-10.91-9.42-10.91-4.71,0-9.42,3.43-9.42,11,0,11.73,7.26,12.56,9.42,12.56S165.87,127.58,165.87,115.85Zm-6.28.19c0,2.84-.59,6.28-3.14,6.28s-3.14-3.44-3.14-6.28q0-4.71,3.14-4.71C157.87,111.33,159.59,111.33,159.59,116Z"/><path class="cls-28" d="M188,115.85c.07-6.87-3.39-10.91-9.42-10.91-4.71,0-9.42,3.43-9.42,11,0,11.73,7.26,12.56,9.42,12.56S188,127.58,188,115.85Zm-6.28.19c0,2.84-.53,6.28-3.14,6.28s-3.14-3.44-3.14-6.28c0-3.14,1.06-4.71,3.14-4.71C180,111.33,181.71,111.33,181.71,116Z"/><path class="cls-29" d="M207,101.63c.06-6.88-3.39-10.91-9.42-10.91-4.71,0-9.42,3.42-9.42,11,0,11.73,7.25,12.56,9.42,12.56S207,113.36,207,101.63Zm-6.28.2c0,2.85-.53,6.28-3.14,6.28s-3.14-3.43-3.14-6.28q0-4.71,3.14-4.71C198.94,97.12,200.68,97.12,200.68,101.83Z"/><path class="cls-30" d="M197.49,73.35a15.06,15.06,0,0,0-5.05-11.73c-5.58-5-14.6-5.88-20.27-5.88a41.25,41.25,0,0,0-4.71.22c-12.56-.68-21.45,1.57-26.28,6.7a12.48,12.48,0,0,0-3.66,9c-.58,5.36.8,15.8,10.06,18.84a10.34,10.34,0,0,1,6.71,5.55c2,3.26,4.58,7.31,13.18,7.31,9.31,0,13.1-5.19,15.88-9,1.57-2.12,2.56-3.44,3.84-3.77C195.3,89.05,197.49,79,197.49,73.35Zm-6.28,0c0,.09-.19,10.09-5.35,11.13-3.72.93-5.76,3.72-7.57,6.19-2.51,3.42-4.71,6.39-10.77,6.39-5.1,0-6.08-1.57-7.85-4.35a16.34,16.34,0,0,0-10.25-8.17c-6.75-2.26-5.69-12-5.64-12.39v-.73a6.38,6.38,0,0,1,2.07-4.54c2.47-2.51,8.2-5.34,21.47-4.6h.28l.28,0c3.9-.44,15.17-.59,20.41,4.09A8.8,8.8,0,0,1,191.21,73.34Z"/></g><g id="vet-icon-nav-9" data-name="vet-icon-nav" class="cls-2"><path class="cls-31" d="M54.49,127c-2.16,0-9.42.83-9.42,12.56,0,7.57,4.71,11,9.42,11,6,0,9.48-4,9.42-10.91C63.91,127.87,56.64,127,54.49,127Zm0,17.14c-2.08,0-3.14-1.57-3.14-4.71,0-2.84.53-6.28,3.14-6.28s3.17,3.44,3.14,6.28C57.63,144.1,55.9,144.1,54.49,144.1Z"/><path class="cls-32" d="M73.45,112.74c-2.16,0-9.42.83-9.42,12.56,0,7.56,4.71,11,9.42,11,6,0,9.49-4,9.42-10.92C82.87,113.65,75.62,112.74,73.45,112.74Zm0,17.16q-3.14,0-3.14-4.71c0-2.85.54-6.28,3.14-6.28s3.16,3.43,3.14,6.28C76.59,129.9,74.87,129.9,73.45,129.9Z"/><path class="cls-33" d="M95.57,112.74c-2.16,0-9.42.83-9.42,12.56,0,7.56,4.71,11,9.42,11,6,0,9.49-4,9.42-10.92C105,113.65,97.74,112.74,95.57,112.74Zm0,17.16c-2.08,0-3.14-1.57-3.14-4.71,0-2.85.54-6.28,3.14-6.28s3.16,3.43,3.14,6.28C98.71,129.9,97,129.9,95.57,129.9Z"/><path class="cls-34" d="M114.54,127c-2.17,0-9.42.83-9.42,12.56,0,7.57,4.71,11,9.42,11,6,0,9.48-4,9.42-10.91C124,127.87,116.71,127,114.54,127Zm0,17.14q-3.14,0-3.14-4.71c0-2.84.52-6.28,3.14-6.28s3.16,3.44,3.14,6.28C117.68,144.1,115.94,144.1,114.54,144.1Z"/><path class="cls-35" d="M104.19,150.6c-1.28-.32-2.27-1.64-3.84-3.76-2.78-3.79-6.57-9-15.88-9-8.6,0-11.14,4-13.18,7.31a10.29,10.29,0,0,1-6.71,5.54c-9.26,3-10.64,13.49-10.06,18.85a12.48,12.48,0,0,0,3.66,9C63,183.7,71.9,186,84.46,185.27a41.25,41.25,0,0,0,4.71.22c5.67,0,14.69-.83,20.27-5.89a15,15,0,0,0,5-11.72C114.49,162.22,112.3,152.17,104.19,150.6Zm1.1,24.29c-5.24,4.68-16.51,4.53-20.41,4.09l-.28,0h-.28c-13.27.74-19-2.09-21.47-4.6a6.38,6.38,0,0,1-2.07-4.54v-.74c-.05-.4-1.11-10.12,5.64-12.38a16.34,16.34,0,0,0,10.25-8.17c1.77-2.78,2.75-4.35,7.85-4.35,6.06,0,8.26,3,10.77,6.39,1.81,2.47,3.85,5.26,7.57,6.19,5.16,1,5.35,11,5.35,11.13A8.82,8.82,0,0,1,105.29,174.89Z"/></g><g id="vet-icon-nav-10" data-name="vet-icon-nav" class="cls-2"><path class="cls-36" d="M221.49,119c-2.16,0-9.42.83-9.42,12.56,0,7.57,4.71,11,9.42,11,6,0,9.48-4,9.42-10.91C230.91,119.87,223.64,119,221.49,119Zm0,17.14c-2.08,0-3.14-1.57-3.14-4.71,0-2.84.53-6.28,3.14-6.28s3.17,3.44,3.14,6.28C224.63,136.1,222.9,136.1,221.49,136.1Z"/><path class="cls-37" d="M240.45,104.74c-2.16,0-9.42.83-9.42,12.56,0,7.56,4.71,11,9.42,11,6,0,9.49-4,9.42-10.92C249.87,105.65,242.62,104.74,240.45,104.74Zm0,17.16q-3.13,0-3.14-4.71c0-2.85.54-6.28,3.14-6.28s3.16,3.43,3.14,6.28C243.59,121.9,241.87,121.9,240.45,121.9Z"/><path class="cls-38" d="M262.57,104.74c-2.16,0-9.42.83-9.42,12.56,0,7.56,4.71,11,9.42,11,6,0,9.49-4,9.42-10.92C272,105.65,264.74,104.74,262.57,104.74Zm0,17.16c-2.08,0-3.14-1.57-3.14-4.71,0-2.85.54-6.28,3.14-6.28s3.16,3.43,3.14,6.28C265.71,121.9,264,121.9,262.57,121.9Z"/><path class="cls-39" d="M281.54,119c-2.17,0-9.42.83-9.42,12.56,0,7.57,4.71,11,9.42,11,6,0,9.48-4,9.42-10.91C291,119.87,283.71,119,281.54,119Zm0,17.14q-3.14,0-3.14-4.71c0-2.84.52-6.28,3.14-6.28s3.16,3.44,3.14,6.28C284.68,136.1,282.94,136.1,281.54,136.1Z"/><path class="cls-40" d="M271.19,142.6c-1.28-.32-2.27-1.64-3.84-3.76-2.78-3.79-6.57-9-15.88-9-8.6,0-11.14,4-13.18,7.31a10.29,10.29,0,0,1-6.71,5.54c-9.26,3-10.64,13.49-10.06,18.85a12.48,12.48,0,0,0,3.66,9c4.83,5.13,13.72,7.38,26.28,6.7a41.25,41.25,0,0,0,4.71.22c5.67,0,14.69-.83,20.27-5.89a15,15,0,0,0,5.05-11.72C281.49,154.22,279.3,144.17,271.19,142.6Zm1.1,24.29c-5.24,4.68-16.51,4.53-20.41,4.09l-.28,0h-.28c-13.27.74-19-2.09-21.47-4.6a6.38,6.38,0,0,1-2.07-4.54v-.74c-.05-.4-1.11-10.12,5.64-12.38a16.34,16.34,0,0,0,10.25-8.17c1.77-2.78,2.75-4.35,7.85-4.35,6.06,0,8.26,3,10.77,6.39,1.81,2.47,3.85,5.26,7.57,6.19,5.16,1,5.35,11,5.35,11.13A8.82,8.82,0,0,1,272.29,166.89Z"/></g><g id="vet-icon-nav-11" data-name="vet-icon-nav" class="cls-2"><path class="cls-41" d="M136.49-23c-2.16,0-9.42.83-9.42,12.56,0,7.57,4.71,11,9.42,11,6,0,9.48-4,9.42-10.91C145.91-22.13,138.64-23,136.49-23Zm0,17.14c-2.08,0-3.14-1.57-3.14-4.71,0-2.84.53-6.28,3.14-6.28s3.17,3.44,3.14,6.28C139.63-5.9,137.9-5.9,136.49-5.9Z"/><path class="cls-42" d="M155.45-37.26c-2.16,0-9.42.83-9.42,12.56,0,7.56,4.71,11,9.42,11,6,0,9.49-4,9.42-10.92C164.87-36.35,157.62-37.26,155.45-37.26Zm0,17.16q-3.13,0-3.14-4.71c0-2.85.54-6.28,3.14-6.28s3.16,3.43,3.14,6.28C158.59-20.1,156.87-20.1,155.45-20.1Z"/><path class="cls-43" d="M177.57-37.26c-2.16,0-9.42.83-9.42,12.56,0,7.56,4.71,11,9.42,11,6,0,9.49-4,9.42-10.92C187-36.35,179.74-37.26,177.57-37.26Zm0,17.16c-2.08,0-3.14-1.57-3.14-4.71,0-2.85.54-6.28,3.14-6.28s3.16,3.43,3.14,6.28C180.71-20.1,179-20.1,177.57-20.1Z"/><path class="cls-44" d="M196.54-23c-2.17,0-9.42.83-9.42,12.56,0,7.57,4.71,11,9.42,11,6,0,9.48-4,9.42-10.91C206-22.13,198.71-23,196.54-23Zm0,17.14q-3.14,0-3.14-4.71c0-2.84.52-6.28,3.14-6.28s3.16,3.44,3.14,6.28C199.68-5.9,197.94-5.9,196.54-5.9Z"/><path class="cls-45" d="M186.19.6c-1.28-.32-2.27-1.64-3.84-3.76-2.78-3.79-6.57-9-15.88-9-8.6,0-11.14,4.05-13.18,7.31A10.29,10.29,0,0,1,146.58.71c-9.26,3.05-10.64,13.49-10.06,18.85a12.48,12.48,0,0,0,3.66,9C145,33.7,153.9,36,166.46,35.27a41.25,41.25,0,0,0,4.71.22c5.67,0,14.69-.83,20.27-5.89a15,15,0,0,0,5.05-11.72C196.49,12.22,194.3,2.17,186.19.6Zm1.1,24.29c-5.24,4.68-16.51,4.53-20.41,4.09l-.28,0h-.28c-13.27.74-19-2.09-21.47-4.6a6.38,6.38,0,0,1-2.07-4.54v-.74c-.05-.4-1.11-10.12,5.64-12.38a16.34,16.34,0,0,0,10.25-8.17c1.77-2.78,2.75-4.35,7.85-4.35,6.06,0,8.26,3,10.77,6.39,1.81,2.47,3.85,5.26,7.57,6.19,5.16,1,5.35,11,5.35,11.13A8.82,8.82,0,0,1,187.29,24.89Z"/></g><g id="vet-icon-nav-12" data-name="vet-icon-nav" class="cls-2"><path class="cls-46" d="M20.89,20.76C21,13.89,17.5,9.85,11.47,9.85c-4.71,0-9.42,3.43-9.42,11,0,11.73,7.25,12.56,9.42,12.56S20.89,32.49,20.89,20.76ZM14.61,21c0,2.84-.54,6.28-3.14,6.28S8.33,23.79,8.33,21q0-4.71,3.14-4.71C12.88,16.24,14.61,16.24,14.61,21Z"/><path class="cls-47" d="M39.85,6.54c.07-6.88-3.39-10.91-9.42-10.91C25.72-4.37,21-.95,21,6.62c0,11.73,7.26,12.56,9.42,12.56S39.85,18.27,39.85,6.54Zm-6.28.2C33.59,9.59,33,13,30.43,13s-3.14-3.43-3.14-6.28C27.29,3.6,28.35,2,30.43,2,31.83,2,33.57,2,33.57,6.74Z"/><path class="cls-48" d="M30.39-21.74a15,15,0,0,0-5.06-11.72c-5.57-5.06-14.6-5.89-20.27-5.89a41.25,41.25,0,0,0-4.71.22c-12.56-.68-21.45,1.57-26.28,6.7a12.48,12.48,0,0,0-3.66,9c-.58,5.36.8,15.8,10.06,18.84A10.31,10.31,0,0,1-12.82,1c2,3.26,4.58,7.31,13.19,7.31,9.31,0,13.09-5.19,15.87-9,1.57-2.12,2.56-3.44,3.85-3.77C28.19-6,30.39-16.08,30.39-21.74Zm-6.28,0c0,.09-.19,10.09-5.36,11.13C15-9.69,13-6.9,11.18-4.43,8.67-1,6.47,2,.41,2-4.69,2-5.66.39-7.44-2.39a16.34,16.34,0,0,0-10.25-8.17c-6.75-2.26-5.68-12-5.63-12.39v-.73a6.3,6.3,0,0,1,2.07-4.54c2.46-2.51,8.19-5.34,21.46-4.6H.49l.29,0c3.89-.44,15.16-.59,20.41,4.09A8.87,8.87,0,0,1,24.11-21.75Z"/></g><g id="vet-icon-nav-13" data-name="vet-icon-nav" class="cls-2"><path class="cls-49" d="M54.38,23.87c-2.15,0-9.42.83-9.42,12.56,0,7.57,4.71,11,9.42,11,6,0,9.48-4,9.42-10.91C63.8,24.78,56.53,23.87,54.38,23.87Zm0,17.14c-2.07,0-3.14-1.57-3.14-4.71,0-2.84.53-6.28,3.14-6.28s3.17,3.44,3.14,6.28C57.52,41,55.79,41,54.38,41Z"/><path class="cls-50" d="M73.35,9.65c-2.17,0-9.42.83-9.42,12.56,0,7.56,4.71,11,9.42,11,6,0,9.48-4,9.42-10.92C82.77,10.56,75.51,9.65,73.35,9.65Zm0,17.16q-3.13,0-3.14-4.71c0-2.85.53-6.28,3.14-6.28s3.15,3.43,3.14,6.28C76.49,26.81,74.76,26.81,73.35,26.81Z"/><path class="cls-51" d="M95.47,9.65c-2.17,0-9.42.83-9.42,12.56,0,7.56,4.71,11,9.42,11,6,0,9.48-4,9.42-10.92C104.89,10.56,97.63,9.65,95.47,9.65Zm0,17.16q-3.14,0-3.14-4.71c0-2.85.53-6.28,3.14-6.28s3.15,3.43,3.14,6.28C98.61,26.81,96.88,26.81,95.47,26.81Z"/><path class="cls-52" d="M114.43,23.87c-2.16,0-9.42.83-9.42,12.56,0,7.57,4.71,11,9.42,11,6,0,9.49-4,9.42-10.91C123.85,24.78,116.6,23.87,114.43,23.87Zm0,17.14c-2.08,0-3.14-1.57-3.14-4.71,0-2.84.52-6.28,3.14-6.28s3.16,3.44,3.14,6.28C117.57,41,115.83,41,114.43,41Z"/><path class="cls-53" d="M104.09,47.52c-1.29-.33-2.28-1.65-3.85-3.77-2.78-3.79-6.56-9-15.87-9-8.61,0-11.15,4-13.19,7.31a10.27,10.27,0,0,1-6.71,5.54c-9.26,3.05-10.64,13.49-10.06,18.85a12.48,12.48,0,0,0,3.66,9c4.83,5.13,13.72,7.38,26.28,6.7a41.25,41.25,0,0,0,4.71.22c5.67,0,14.7-.83,20.27-5.89a15,15,0,0,0,5.06-11.72C114.39,59.13,112.19,49.09,104.09,47.52Zm1.1,24.28c-5.25,4.68-16.52,4.53-20.41,4.09l-.29,0h-.28c-13.27.74-19-2.09-21.46-4.6a6.3,6.3,0,0,1-2.07-4.54V66c0-.4-1.12-10.12,5.63-12.38a16.34,16.34,0,0,0,10.25-8.17c1.78-2.78,2.75-4.35,7.85-4.35,6.06,0,8.26,3,10.77,6.39C97,50,99,52.74,102.75,53.67c5.17,1,5.36,11,5.36,11.13A8.88,8.88,0,0,1,105.19,71.8Z"/></g></pattern></defs><title>Asset 1</title><g id="Layer_2" data-name="Layer 2"><g id="Layer_1-2" data-name="Layer 1"><rect class="cls-54" width="1125" height="1218"/></g></g></svg>