<?xml version="1.0" ?><svg enable-background="new 0 0 186.9844 186.9862" id="dribbble" version="1.1" viewBox="0 0 186.9844 186.9862" xml:space="preserve" xmlns="http://www.w3.org/2000/svg" xmlns:xlink="http://www.w3.org/1999/xlink"><path d="M157.7305,25.6757l-3.6445-3.4531l-0.1245,0.2107C137.0293,7.987,115.7825,0,93.4902,0  C81.3682,0,69.5491,2.3578,58.2957,6.9506l-0.0535-0.0542l-2.5254,1.1172C28.1836,20.2011,8.0957,44.996,1.9805,74.3358  L1.332,77.4472l0.0774,0.0359C0.4912,82.7887,0,88.1579,0,93.496c0,27.5476,11.9875,53.2764,32.9541,71.1187l-0.0361,0.0825  l2.4082,1.918c16.7363,13.3262,36.8477,20.3711,58.1641,20.3711c11.252,0,22.418-2.0762,33.1875-6.1738l2.5781-0.9805v-0.1162  c31.1589-12.4939,52.449-40.3118,56.7502-73.9932l0.2244,0.0781l0.3984-5.1777c0.166-2.166,0.3555-4.6211,0.3555-7.127  C186.9844,67.6405,176.5957,43.5546,157.7305,25.6757z" fill="#535353"/><path d="M178.9844,93.496c0,0.4766-0.0078,0.9512-0.0215,1.4238c-11.2266-3.3711-22.8359-5.0762-34.5898-5.0762  c-10.1453,0-20.2476,1.2856-30.083,3.8254l-0.0205-0.0579l-0.022,0.0063c-2.0308-5.4697-4.229-10.8027-6.5623-15.928l0.0354-0.0159  l-0.0305-0.064c19.657-9.6348,36.125-24.2529,48.0305-42.6274C170.7598,50.912,178.9844,71.5058,178.9844,93.496z" fill="#D8D8D8"/><path d="M149.7373,29.3412c-11.1689,17.7332-26.8186,31.8015-45.6069,41.0137  C93.7197,49.477,80.3474,30.2936,64.2898,13.2003C73.6816,9.7626,83.4751,8,93.4902,8C114.29,8,134.1033,15.6042,149.7373,29.3412z" fill="#D8D8D8"/><path d="M56.4453,16.4882C72.8281,33.4921,86.418,52.703,96.9043,73.6796  c-13.4219,5.457-27.5898,8.2188-42.1738,8.2188c-15.3418,0-30.1973-3.0469-44.2031-9.0605  C16.6309,48.2753,33.5234,27.5351,56.4453,16.4882z" fill="#D8D8D8"/><path d="M8,93.496c0-4.2183,0.3284-8.4617,0.9568-12.6707c14.5439,6.0046,29.9119,9.073,45.7737,9.073  c15.76,0,31.0571-3.0505,45.5498-8.9976c2.2188,4.8618,4.3018,9.9028,6.2419,15.0945  c-30.6716,10.1458-55.824,32.0652-70.0957,61.0728C18.3015,140.8229,8,117.932,8,93.496z" fill="#D8D8D8"/><path d="M42.7754,162.2519c13.2031-27.9785,37.1523-49.1445,66.4688-58.7754  c7.668,22.8398,11.6973,46.625,11.9941,70.8008c-9.0488,3.125-18.3711,4.709-27.748,4.709  C75.0391,178.9862,57.5723,173.2108,42.7754,162.2519z" fill="#D8D8D8"/><path d="M129.1284,171.1378c-0.592-23.8191-4.6921-47.2451-12.2183-69.7927  c20.1909-5.083,41.5186-4.4487,61.3367,1.8103C174.887,133.5883,156.4802,159.0114,129.1284,171.1378z" fill="#D8D8D8"/></svg>