<?xml version="1.0" encoding="utf-8"?>
<!-- Generator: Adobe Illustrator 23.1.0, SVG Export Plug-In . SVG Version: 6.00 Build 0)  -->
<svg version="1.1" id="Layer_1" xmlns="http://www.w3.org/2000/svg" xmlns:xlink="http://www.w3.org/1999/xlink" x="0px" y="0px"
	 viewBox="0 0 139 131" style="enable-background:new 0 0 139 131;" xml:space="preserve">
<style type="text/css">
	.st0{fill:#219EBC;}
	.st1{fill:#FB8500;}
	.st2{fill:#CF5C36;}
</style>
<title>frame</title>
<g>
	
		<image style="overflow:visible;opacity:0.4;" width="171" height="165" xlink:href="9EEF7108.png"  transform="matrix(1 0 0 1 -9 -14)">
	</image>
	<g>
		<g>
			<g>
				<path class="st0" d="M106.1,34.3c15.1,16.4,25.4,38.9,19.6,56.1c-5.9,17.3-27.7,29.4-46.6,29.9c-19,0.6-34.9-10.5-44.6-23.9
					c-9.6-13.5-12.9-29.2-8.9-46.1c3.8-17,14.8-35.1,30.3-38.9C71.2,7.5,91.1,18,106.1,34.3z"/>
			</g>
			<g>
				<path class="st1" d="M125.9,34.8c6.7,13.7-6.6,36.8-19.9,54.3c-13.3,17.6-26.8,29.4-43.2,31.2C46.5,122,27,113.6,18.7,98.9
					c-8.3-14.6-5.5-35.5,4.1-50.8c9.7-15.4,26.4-25.3,48.1-28.2S119.2,21.1,125.9,34.8z"/>
			</g>
			<g>
				<path class="st2" d="M113.9,45c10.8,12.2,16.3,30.8,8.2,43.8c-7.9,13-29.5,20.5-50.6,20.4c-21.2-0.1-42-7.9-52.4-22.2
					S8.6,52,19,40s31.3-15.4,49.7-14.2C87.2,27,103.2,32.8,113.9,45z"/>
			</g>
		</g>
	</g>
</g>
</svg>
