<?xml version="1.0" encoding="utf-8"?>
<!-- Generator: Adobe Illustrator 23.1.0, SVG Export Plug-In . SVG Version: 6.00 Build 0)  -->
<svg version="1.1" id="Layer_1" xmlns="http://www.w3.org/2000/svg" xmlns:xlink="http://www.w3.org/1999/xlink" x="0px" y="0px"
	 viewBox="0 0 139 131" xml:space="preserve">
<style type="text/css">
	.st0{fill:#219EBC;}
	.st1{fill:#FB8500;}
	.st2{fill:#CF5C36;}
</style>
<title>frame</title>
<g>
	<g>
		<path class="st0" d="M111.4,29.9c17.2,18.8,29,44.5,22.3,64.2c-6.7,19.8-31.7,33.6-53.4,34.2c-21.7,0.7-39.9-12-51-27.3
			c-11-15.4-14.6-33.4-10.2-52.7C23.6,28.8,36.2,8,53.9,3.6C71.4-0.8,94.2,11.2,111.4,29.9z"/>
	</g>
	<g>
		<path class="st1" d="M134.1,30.3c7.7,15.6-7.6,42.1-22.8,62.1C96,112.5,80.6,126,61.8,128.1c-18.7,1.9-40.9-7.7-50.5-24.4
			c-9.5-16.6-6.3-40.5,4.7-58C27.2,28,46.2,16.7,71,13.3C95.8,10,126.4,14.7,134.1,30.3z"/>
	</g>
	<g>
		<path class="st2" d="M120.3,42c12.3,14,18.6,35.2,9.4,50.1c-9.1,14.9-33.8,23.4-57.9,23.3c-24.2-0.2-48.1-9.1-60-25.3
			c-11.9-16.3-11.9-39.9,0-53.7s35.8-17.6,56.8-16.2C89.7,21.5,108,28.1,120.3,42z"/>
	</g>
</g>
</svg>
