<?xml version="1.0" encoding="utf-8"?>
<!-- Generator: Adobe Illustrator 23.1.0, SVG Export Plug-In . SVG Version: 6.00 Build 0)  -->
<svg version="1.1" id="Layer_1" xmlns="http://www.w3.org/2000/svg" xmlns:xlink="http://www.w3.org/1999/xlink" x="0px" y="0px"
	 viewBox="0 0 139 131" style="enable-background:new 0 0 139 131;" xml:space="preserve">
<style type="text/css">
	.st0{fill:#219EBC;}
	.st1{fill:#FB8500;}
	.st2{fill:#CF5C36;}
</style>
<title>frame</title>
<g>
	<g>
		<path class="st0" d="M110.5,30.6c16.9,18.4,28.4,43.5,21.9,62.8c-6.6,19.4-31,32.9-52.2,33.5c-21.3,0.7-39.1-11.7-49.9-26.8
			C19.5,85,15.9,67.4,20.3,48.5c4.3-19,16.6-39.3,33.9-43.6C71.4,0.6,93.7,12.3,110.5,30.6z"/>
	</g>
	<g>
		<path class="st1" d="M132.7,31.1c7.5,15.3-7.4,41.2-22.3,60.8c-14.9,19.7-30,32.9-48.4,34.9c-18.3,1.9-40.1-7.5-49.4-23.9
			C3.3,86.5,6.4,63.2,17.2,46C28.1,28.8,46.7,17.7,71,14.4S125.2,15.8,132.7,31.1z"/>
	</g>
	<g>
		<path class="st2" d="M119.2,42.5c12.1,13.7,18.2,34.5,9.2,49c-8.9,14.6-33,23-56.7,22.8C48,114.2,24.7,105.4,13,89.5
			C1.3,73.6,1.3,50.4,13,37s35-17.2,55.6-15.9C89.3,22.4,107.2,28.9,119.2,42.5z"/>
	</g>
</g>
</svg>
