<?xml version="1.0" encoding="utf-8"?>
<!-- Generator: Adobe Illustrator 23.1.0, SVG Export Plug-In . SVG Version: 6.00 Build 0)  -->
<svg version="1.1" id="Layer_1" xmlns="http://www.w3.org/2000/svg" xmlns:xlink="http://www.w3.org/1999/xlink" x="0px" y="0px"
	 viewBox="0 0 16 16" style="enable-background:new 0 0 16 16;" xml:space="preserve">
<style type="text/css">
	.st0{fill:#FFFFFF;}
	.st1{fill:#0E171B;}
</style>
<g>
	<g id="Layer_1_1_">
		<circle class="st0" cx="8" cy="8" r="7.9"/>
	</g>
</g>
<g>
	<g>
		<title>vet-icon-nav</title>
		<g>
			<g id="vet-icon-nav_1_">
				<path class="st1" d="M4.9,7L4.9,7L4.9,7L4.9,7z"/>
				<path class="st1" d="M4.9,7L4.9,7L4.9,7L4.9,7z"/>
			</g>
		</g>
	</g>
	<g>
		<title>feed-icon-nav</title>
		<g>
			<g id="news-icon-nav_1_">
				<path d="M8.6,6.8c0,0.1,0,0.1-0.1,0.1c0,0,0,0,0,0h-2c0,0,0,0,0,0c-0.1,0-0.1-0.1-0.1-0.2c0,0,0-0.1,0.1-0.1c0,0,0,0,0,0h2
					c0,0,0,0,0,0C8.5,6.7,8.6,6.7,8.6,6.8z"/>
				<path d="M6.4,6.9C6.4,6.9,6.4,6.9,6.4,6.9L6.4,6.9L6.4,6.9z"/>
				<path d="M6.4,6.6L6.4,6.6C6.4,6.6,6.4,6.6,6.4,6.6L6.4,6.6z"/>
				<path d="M8.5,6.6L8.5,6.6C8.5,6.6,8.5,6.6,8.5,6.6L8.5,6.6z"/>
				<path d="M8.4,6.9C8.5,6.9,8.5,6.9,8.4,6.9L8.4,6.9L8.4,6.9z"/>
				<path d="M8.6,7.5c0,0.1,0,0.1-0.1,0.1c0,0,0,0,0,0h-2c0,0,0,0,0,0c-0.1,0-0.1-0.1-0.1-0.2c0,0,0-0.1,0.1-0.1c0,0,0,0,0,0h2
					c0,0,0,0,0,0C8.5,7.4,8.6,7.5,8.6,7.5z"/>
				<path d="M6.4,7.7C6.4,7.7,6.4,7.7,6.4,7.7L6.4,7.7L6.4,7.7z"/>
				<path d="M6.4,7.4L6.4,7.4C6.4,7.4,6.4,7.4,6.4,7.4L6.4,7.4z"/>
				<path d="M8.5,7.4L8.5,7.4C8.5,7.4,8.5,7.4,8.5,7.4L8.5,7.4z"/>
				<path d="M8.4,7.7C8.5,7.7,8.5,7.7,8.4,7.7L8.4,7.7L8.4,7.7z"/>
				<path d="M8.6,8.2c0,0.1,0,0.1-0.1,0.1c0,0,0,0,0,0h-2c0,0,0,0,0,0c-0.1,0-0.1-0.1-0.1-0.2c0,0,0-0.1,0.1-0.1c0,0,0,0,0,0h2
					c0,0,0,0,0,0C8.5,8.1,8.6,8.1,8.6,8.2z"/>
				<path d="M6.4,8.3C6.4,8.3,6.4,8.3,6.4,8.3L6.4,8.3L6.4,8.3z"/>
				<path d="M6.4,8.1L6.4,8.1C6.4,8.1,6.4,8.1,6.4,8.1L6.4,8.1z"/>
				<path d="M8.5,8.1L8.5,8.1C8.5,8.1,8.5,8.1,8.5,8.1L8.5,8.1z"/>
				<path d="M8.4,8.3C8.5,8.3,8.5,8.3,8.4,8.3L8.4,8.3L8.4,8.3z"/>
				<path d="M8.6,8.9c0,0.1,0,0.1-0.1,0.1c0,0,0,0,0,0h-2c0,0,0,0,0,0C6.3,9,6.2,8.9,6.3,8.9c0,0,0-0.1,0.1-0.1c0,0,0,0,0,0h2
					c0,0,0,0,0,0C8.5,8.8,8.6,8.8,8.6,8.9z"/>
				<path d="M6.4,9C6.4,9,6.4,9,6.4,9L6.4,9L6.4,9z"/>
				<path d="M6.4,8.7L6.4,8.7C6.4,8.7,6.4,8.8,6.4,8.7L6.4,8.7z"/>
				<path d="M8.5,8.7L8.5,8.7C8.5,8.8,8.5,8.7,8.5,8.7L8.5,8.7z"/>
				<path d="M8.4,9C8.5,9,8.5,9,8.4,9L8.4,9L8.4,9z"/>
				<path d="M8.6,9.6c0,0.1,0,0.1-0.1,0.1c0,0,0,0,0,0h-2c0,0,0,0,0,0c-0.1,0-0.1-0.1-0.1-0.2c0,0,0-0.1,0.1-0.1c0,0,0,0,0,0h2
					c0,0,0,0,0,0C8.5,9.5,8.6,9.5,8.6,9.6z"/>
				<path d="M6.4,9.7C6.4,9.7,6.4,9.7,6.4,9.7L6.4,9.7L6.4,9.7z"/>
				<path d="M6.4,9.4L6.4,9.4C6.4,9.4,6.4,9.4,6.4,9.4L6.4,9.4z"/>
				<path d="M8.5,9.4L8.5,9.4C8.5,9.4,8.5,9.4,8.5,9.4L8.5,9.4z"/>
				<path d="M8.4,9.7C8.5,9.7,8.5,9.7,8.4,9.7L8.4,9.7L8.4,9.7z"/>
				<path d="M8.6,10.3c0,0.1,0,0.1-0.1,0.1c0,0,0,0,0,0h-2c0,0,0,0,0,0c-0.1,0-0.1-0.1-0.1-0.2c0,0,0-0.1,0.1-0.1c0,0,0,0,0,0h2
					c0,0,0,0,0,0C8.5,10.1,8.6,10.2,8.6,10.3z"/>
				<path d="M6.4,10.4C6.4,10.4,6.4,10.4,6.4,10.4L6.4,10.4L6.4,10.4z"/>
				<path d="M6.4,10.1L6.4,10.1C6.4,10.1,6.4,10.1,6.4,10.1L6.4,10.1z"/>
				<path d="M8.5,10.1L8.5,10.1C8.5,10.1,8.5,10.1,8.5,10.1L8.5,10.1z"/>
				<path d="M8.4,10.4C8.5,10.4,8.5,10.4,8.4,10.4L8.4,10.4L8.4,10.4z"/>
				<path d="M8.6,11c0,0.1,0,0.1-0.1,0.1c0,0,0,0,0,0h-2c0,0,0,0,0,0c-0.1,0-0.1-0.1-0.1-0.2c0,0,0-0.1,0.1-0.1c0,0,0,0,0,0h2
					c0,0,0,0,0,0C8.5,10.9,8.6,10.9,8.6,11z"/>
				<path d="M6.4,11.1C6.4,11.1,6.4,11.1,6.4,11.1L6.4,11.1L6.4,11.1z"/>
				<path d="M6.4,10.9L6.4,10.9C6.4,10.9,6.4,10.9,6.4,10.9L6.4,10.9z"/>
				<path d="M8.5,10.9L8.5,10.9C8.5,10.9,8.5,10.9,8.5,10.9L8.5,10.9z"/>
				<path d="M8.4,11.1C8.5,11.1,8.5,11.1,8.4,11.1L8.4,11.1L8.4,11.1z"/>
				<path d="M11.7,6.8c0,0.1,0,0.1-0.1,0.1c0,0,0,0,0,0h-2c0,0,0,0,0,0c-0.1,0-0.1-0.1-0.1-0.2c0,0,0-0.1,0.1-0.1c0,0,0,0,0,0h2
					c0,0,0,0,0,0C11.7,6.7,11.7,6.7,11.7,6.8z"/>
				<path d="M9.5,6.9C9.5,6.9,9.5,6.9,9.5,6.9L9.5,6.9L9.5,6.9z"/>
				<path d="M9.5,6.6L9.5,6.6C9.5,6.6,9.5,6.6,9.5,6.6L9.5,6.6z"/>
				<path d="M11.6,6.6L11.6,6.6C11.6,6.6,11.6,6.6,11.6,6.6L11.6,6.6z"/>
				<path d="M11.6,6.9C11.6,6.9,11.6,6.9,11.6,6.9L11.6,6.9L11.6,6.9z"/>
				<path d="M11.7,7.5c0,0.1,0,0.1-0.1,0.1c0,0,0,0,0,0h-2c0,0,0,0,0,0c-0.1,0-0.1-0.1-0.1-0.2c0,0,0-0.1,0.1-0.1c0,0,0,0,0,0h2
					c0,0,0,0,0,0C11.7,7.4,11.7,7.5,11.7,7.5z"/>
				<path d="M9.5,7.7C9.5,7.7,9.5,7.7,9.5,7.7L9.5,7.7L9.5,7.7z"/>
				<path d="M9.5,7.4L9.5,7.4C9.5,7.4,9.5,7.4,9.5,7.4L9.5,7.4z"/>
				<path d="M11.6,7.4L11.6,7.4C11.6,7.4,11.6,7.4,11.6,7.4L11.6,7.4z"/>
				<path d="M11.6,7.7C11.6,7.7,11.6,7.7,11.6,7.7L11.6,7.7L11.6,7.7z"/>
				<path d="M11.7,8.2c0,0.1,0,0.1-0.1,0.1c0,0,0,0,0,0h-2c0,0,0,0,0,0c-0.1,0-0.1-0.1-0.1-0.2c0,0,0-0.1,0.1-0.1c0,0,0,0,0,0h2
					c0,0,0,0,0,0C11.7,8.1,11.7,8.1,11.7,8.2z"/>
				<path d="M9.5,8.3C9.5,8.3,9.5,8.3,9.5,8.3L9.5,8.3L9.5,8.3z"/>
				<path d="M9.5,8.1L9.5,8.1C9.5,8.1,9.5,8.1,9.5,8.1L9.5,8.1z"/>
				<path d="M11.6,8.1L11.6,8.1C11.6,8.1,11.6,8.1,11.6,8.1L11.6,8.1z"/>
				<path d="M11.6,8.3C11.6,8.3,11.6,8.3,11.6,8.3L11.6,8.3L11.6,8.3z"/>
				<path d="M11.7,8.9c0,0.1,0,0.1-0.1,0.1c0,0,0,0,0,0h-2c0,0,0,0,0,0C9.4,9,9.4,8.9,9.4,8.9c0,0,0-0.1,0.1-0.1c0,0,0,0,0,0h2
					c0,0,0,0,0,0C11.7,8.8,11.7,8.8,11.7,8.9z"/>
				<path d="M9.5,9L9.5,9L9.5,9C9.5,9,9.5,9,9.5,9z"/>
				<path d="M9.5,8.7C9.5,8.7,9.5,8.8,9.5,8.7L9.5,8.7L9.5,8.7z"/>
				<path d="M11.6,8.7L11.6,8.7C11.6,8.8,11.6,8.7,11.6,8.7L11.6,8.7z"/>
				<path d="M11.6,9L11.6,9L11.6,9C11.6,9,11.6,9,11.6,9z"/>
				<path d="M11.7,9.6c0,0.1,0,0.1-0.1,0.1c0,0,0,0,0,0h-2c0,0,0,0,0,0c-0.1,0-0.1-0.1-0.1-0.2c0,0,0-0.1,0.1-0.1c0,0,0,0,0,0h2
					c0,0,0,0,0,0C11.7,9.5,11.7,9.5,11.7,9.6z"/>
				<path d="M9.5,9.7C9.5,9.7,9.5,9.7,9.5,9.7L9.5,9.7L9.5,9.7z"/>
				<path d="M9.5,9.4L9.5,9.4C9.5,9.4,9.5,9.4,9.5,9.4L9.5,9.4z"/>
				<path d="M11.6,9.4L11.6,9.4C11.6,9.4,11.6,9.4,11.6,9.4L11.6,9.4z"/>
				<path d="M11.6,9.7C11.6,9.7,11.6,9.7,11.6,9.7L11.6,9.7L11.6,9.7z"/>
				<path d="M11.7,10.3c0,0.1,0,0.1-0.1,0.1c0,0,0,0,0,0h-2c0,0,0,0,0,0c-0.1,0-0.1-0.1-0.1-0.2c0,0,0-0.1,0.1-0.1c0,0,0,0,0,0h2
					c0,0,0,0,0,0C11.7,10.1,11.7,10.2,11.7,10.3z"/>
				<path d="M9.5,10.4C9.5,10.4,9.5,10.4,9.5,10.4L9.5,10.4L9.5,10.4z"/>
				<path d="M9.5,10.1L9.5,10.1C9.5,10.1,9.5,10.1,9.5,10.1L9.5,10.1z"/>
				<path d="M11.6,10.1L11.6,10.1C11.6,10.1,11.6,10.1,11.6,10.1L11.6,10.1z"/>
				<path d="M11.6,10.4C11.6,10.4,11.6,10.4,11.6,10.4L11.6,10.4L11.6,10.4z"/>
				<path d="M11.7,11c0,0.1,0,0.1-0.1,0.1c0,0,0,0,0,0h-2c0,0,0,0,0,0c-0.1,0-0.1-0.1-0.1-0.2c0,0,0-0.1,0.1-0.1c0,0,0,0,0,0h2
					c0,0,0,0,0,0C11.7,10.9,11.7,10.9,11.7,11z"/>
				<path d="M9.5,11.1C9.5,11.1,9.5,11.1,9.5,11.1L9.5,11.1L9.5,11.1z"/>
				<path d="M9.5,10.9L9.5,10.9C9.5,10.9,9.5,10.9,9.5,10.9L9.5,10.9z"/>
				<path d="M11.6,10.9L11.6,10.9C11.6,10.9,11.6,10.9,11.6,10.9L11.6,10.9z"/>
				<path d="M11.6,11.1C11.6,11.1,11.6,11.1,11.6,11.1L11.6,11.1L11.6,11.1z"/>
				<path d="M10.5,5.4C10.5,5.4,10.5,5.4,10.5,5.4L10.5,5.4z"/>
				<path d="M10.5,5.4L10.5,5.4L10.5,5.4C10.5,5.4,10.5,5.4,10.5,5.4z"/>
				<path d="M12.8,10.9V2.8H5.2V11c0,0.1-0.2,1.2-1.3,1.2c-0.1,0-0.1,0-0.2,0h0h0c-0.2,0-0.5-0.1-0.7-0.2c-0.3-0.3-0.5-0.7-0.5-1.4
					V6.5H2.3v4.1c0,0.8,0.2,1.3,0.6,1.6c0.2,0.2,0.5,0.3,0.8,0.3c0,0,0.1,0,0.1,0h7.6c0.4,0,0.7-0.1,1-0.3
					C12.9,11.7,12.8,10.9,12.8,10.9z M12.2,12c-0.2,0.2-0.5,0.3-0.8,0.3H4.8C5.4,11.8,5.5,11,5.5,11V3.1h7.1v7.8
					C12.6,10.9,12.6,11.6,12.2,12z"/>
				<path d="M7.2,4v1.4c0,0.1-0.1,0.1-0.1,0.1c0,0,0,0,0,0c-0.1,0-0.1,0-0.2-0.1L6.2,4.4v1c0,0.1-0.1,0.1-0.1,0.1
					c-0.1,0-0.1-0.1-0.1-0.1V4c0-0.1,0-0.1,0.1-0.1l0,0l0,0c0.1,0,0.2,0,0.2,0L6.9,5V4C6.9,3.9,7,3.8,7,3.8C7.1,3.8,7.2,3.9,7.2,4z"
					/>
				<path d="M8.5,5.4c0,0.1-0.1,0.1-0.1,0.1H7.7c-0.1,0-0.1-0.1-0.1-0.1V4c0-0.1,0.1-0.1,0.1-0.1h0.7c0.1,0,0.1,0.1,0.1,0.1
					S8.5,4.1,8.4,4.1H7.9v0.4h0.4l0,0c0.1,0,0.1,0.1,0.1,0.1S8.3,4.8,8.3,4.8l0,0H7.9v0.5h0.5C8.5,5.3,8.5,5.3,8.5,5.4z"/>
				<path d="M10.8,4l-0.3,1.4l0,0c0,0,0,0,0,0c0,0,0,0.1-0.1,0.1c-0.1,0-0.1,0-0.2-0.1c0,0,0,0,0,0l0,0l-0.4-1l-0.4,1l0,0
					c0,0.1,0,0.1-0.1,0.1c-0.1,0-0.1,0-0.1-0.1L9,4c0-0.1,0-0.1,0.1-0.2c0.1,0,0.1,0,0.2,0.1c0,0,0,0,0,0l0.2,0.9L9.7,4
					c0-0.1,0.1-0.1,0.1-0.1c0.1,0,0.1,0,0.1,0.1l0,0l0.3,0.9L10.5,4c0-0.1,0.1-0.1,0.2-0.1C10.7,3.9,10.8,3.9,10.8,4
					C10.8,4,10.8,4,10.8,4L10.8,4z"/>
				<path d="M12,5.4c-0.1,0.1-0.2,0.2-0.4,0.1c-0.4,0-0.6-0.3-0.6-0.4c0,0,0,0,0,0c0,0,0,0,0,0c0-0.1,0-0.1,0.1-0.2
					c0.1,0,0.1,0,0.2,0.1l0,0c0,0,0.1,0.2,0.3,0.2c0.1,0,0.1,0,0.1-0.1c0.1-0.1,0.1-0.2,0.1-0.3c0,0-0.1-0.2-0.4-0.2
					c-0.1,0-0.2,0-0.3-0.1C11.1,4.5,11,4.4,11,4.3c0-0.3,0.2-0.5,0.5-0.5c0.2,0,0.4,0.1,0.6,0.3c0,0,0,0,0,0c0,0,0,0,0,0.1
					c0,0.1-0.1,0.1-0.1,0.1c0,0-0.1,0-0.1-0.1l0,0c0,0-0.1-0.1-0.4-0.1c-0.1,0-0.2,0.1-0.2,0.3c0,0,0,0.1,0,0.1c0,0,0.1,0,0.1,0
					c0.5,0,0.6,0.3,0.7,0.5v0C12.1,4.9,12.1,5.2,12,5.4z"/>
				<path d="M3.9,12.2c-0.1,0-0.1,0-0.2,0H3.9z"/>
				<path d="M3.8,11.8c-0.6,0-0.8-0.6-0.8-1L3.1,6h0.8v0.3H3.4l-0.1,4.6c0,0,0,0.7,0.5,0.7s0.6-0.6,0.6-0.7V3.3h0.3v7.6
					C4.7,11.2,4.5,11.8,3.8,11.8z"/>
				<path d="M4,12.5C3.9,12.5,3.9,12.5,4,12.5H3.8C3.8,12.5,4,12.5,4,12.5z"/>
			</g>
		</g>
	</g>
</g>
</svg>
