<?xml version="1.0" encoding="utf-8"?>
<!-- Generator: Adobe Illustrator 23.1.0, SVG Export Plug-In . SVG Version: 6.00 Build 0)  -->
<svg version="1.1" xmlns="http://www.w3.org/2000/svg" xmlns:xlink="http://www.w3.org/1999/xlink" x="0px" y="0px"
	 viewBox="0 0 16 16" style="enable-background:new 0 0 16 16;" xml:space="preserve">
<style type="text/css">
	.st0{fill:#FFFFFF;}
	.st1{fill:#FB8500;}
</style>
<g id="Layer_1">
	<g id="Layer_1_1_">
		<circle class="st0" cx="8" cy="8" r="7.9"/>
	</g>
	<circle class="st1" cx="8" cy="8" r="7.9"/>
</g>
<g id="Layer_2">
	<g>
		<title>vet-icon-nav</title>
		<g>
			<g id="vet-icon-nav_1_">
				<path class="st0" d="M4.9,7C4.9,7,4.9,7,4.9,7L4.9,7C4.9,7,4.9,7,4.9,7z"/>
				<path class="st0" d="M4.9,7L4.9,7C4.9,7,4.9,7,4.9,7L4.9,7z"/>
			</g>
		</g>
	</g>
	<path class="st0" d="M4.6,8.2c-0.5,0-1.1-0.4-1.1-1.2c0-1.3,0.8-1.4,1.1-1.4s1.1,0.1,1.1,1.4C5.7,7.7,5.3,8.2,4.6,8.2z M4.6,6.2
		c-0.3,0-0.4,0.4-0.4,0.7c0,0.4,0.1,0.5,0.4,0.5c0.2,0,0.4,0,0.4-0.5C5,6.6,4.9,6.2,4.6,6.2z"/>
	<path class="st0" d="M6.8,6.6c-0.5,0-1.1-0.4-1.1-1.2c0-1.3,0.8-1.4,1.1-1.4S7.8,4,7.8,5.3C7.8,6.1,7.4,6.6,6.8,6.6z M6.8,4.6
		C6.5,4.6,6.4,5,6.4,5.3c0,0.4,0.1,0.5,0.4,0.5c0.2,0,0.4,0,0.4-0.5C7.1,5,7,4.6,6.8,4.6z"/>
	<path class="st0" d="M9.2,6.6c-0.5,0-1.1-0.4-1.1-1.2C8.2,4,9,3.9,9.2,3.9c0.2,0,1.1,0.1,1.1,1.4C10.3,6.1,9.9,6.6,9.2,6.6z
		 M9.2,4.6C9,4.6,8.9,5,8.9,5.3c0,0.4,0.1,0.5,0.4,0.5c0.2,0,0.4,0,0.4-0.5C9.6,5,9.5,4.6,9.2,4.6z"/>
	<path class="st0" d="M11.4,8.2c-0.5,0-1.1-0.4-1.1-1.2c0-1.3,0.8-1.4,1.1-1.4s1.1,0.1,1.1,1.4C12.5,7.7,12.1,8.2,11.4,8.2z
		 M11.4,6.2c-0.3,0-0.4,0.4-0.4,0.7c0,0.4,0.1,0.5,0.4,0.5c0.2,0,0.4,0,0.4-0.5C11.7,6.6,11.7,6.2,11.4,6.2z"/>
	<path class="st0" d="M8.5,12.1c-0.2,0-0.4,0-0.5,0c-1.4,0.1-2.4-0.2-3-0.8c-0.3-0.3-0.4-0.6-0.4-1C4.5,9.7,4.7,8.5,5.8,8.2
		c0.3-0.1,0.6-0.3,0.8-0.6C6.7,7.2,7,6.7,8,6.7c1.1,0,1.5,0.6,1.8,1C10,8,10.1,8.1,10.2,8.2c0.9,0.2,1.2,1.3,1.2,1.9
		c0,0.5-0.2,1-0.6,1.3C10.2,12,9.2,12.1,8.5,12.1z M8,11.4c0.4,0,1.7,0.1,2.3-0.5c0.2-0.2,0.3-0.5,0.3-0.8c0,0,0-1.1-0.6-1.3
		C9.7,8.8,9.4,8.4,9.2,8.2C8.9,7.8,8.7,7.4,8,7.4c-0.6,0-0.7,0.2-0.9,0.5C6.9,8.4,6.5,8.7,6,8.9c-0.8,0.3-0.6,1.4-0.6,1.4v0v0
		c0,0.2,0.1,0.4,0.2,0.5C5.8,11.1,6.5,11.5,8,11.4L8,11.4L8,11.4z"/>
</g>
</svg>
