<?xml version="1.0" encoding="utf-8"?>
<!-- Generator: Adobe Illustrator 23.1.0, SVG Export Plug-In . SVG Version: 6.00 Build 0)  -->
<svg version="1.1" xmlns="http://www.w3.org/2000/svg" xmlns:xlink="http://www.w3.org/1999/xlink" x="0px" y="0px"
	 viewBox="0 0 16 16" style="enable-background:new 0 0 16 16;" xml:space="preserve">
<style type="text/css">
	.st0{fill:#FFFFFF;}
</style>
<g id="Layer_1_1_">
	<circle class="st0" cx="8" cy="8" r="7.9"/>
</g>
<g id="Layer_2">
	<g>
		<title>user-icon</title>
		<g>
			<g id="user-icon_1_">
				<polygon points="14,12.5 13.8,12.5 13.8,12.5 				"/>
				<path d="M12.1,8.2c-0.5-0.5-1.1-0.8-1.8-1.1c1.4-1.2,1.5-3.4,0.3-4.8S7.2,0.8,5.8,2.1S4.3,5.5,5.5,6.8C6.7,8.1,8.6,8.3,10,7.3
					c0.5,0.2,3.5,1.6,3.8,4.8H2.3c0.1-0.6,0.5-2.7,2-3.7L4.1,8.2C2.2,9.5,2,12.2,2,12.3l0,0.2h12h0.2C14.1,10.4,13,9,12.1,8.2z
					 M8,7.6c-1.7,0-3-1.4-3-3s1.4-3,3-3s3,1.4,3,3S9.7,7.6,8,7.6z"/>
			</g>
		</g>
	</g>
</g>
</svg>
