<?xml version="1.0" encoding="utf-8"?>
<!-- Generator: Adobe Illustrator 23.1.0, SVG Export Plug-In . SVG Version: 6.00 Build 0)  -->
<svg version="1.1" xmlns="http://www.w3.org/2000/svg" xmlns:xlink="http://www.w3.org/1999/xlink" x="0px" y="0px"
	 viewBox="0 0 16 16" style="enable-background:new 0 0 16 16;" xml:space="preserve">
<style type="text/css">
	.st0{fill:#FFFFFF;}
	.st1{fill:#FB8500;}
</style>
<g id="Layer_1">
	<g>
		<g id="Layer_1_1_">
			<circle class="st0" cx="8" cy="8" r="7.9"/>
		</g>
		<circle class="st1" cx="8" cy="8" r="7.9"/>
	</g>
</g>
<g id="Layer_2">
	<g>
		<g>
			<g>
				<title>user-icon</title>
				<g>
					<g id="user-icon_2_">
						<polygon class="st0" points="13.4,12.1 13.3,12.1 13.3,12.1 						"/>
						<path class="st0" d="M11.7,8.2c-0.5-0.5-1-0.7-1.6-1c1.3-1.1,1.4-3.1,0.3-4.3S7.3,1.5,6,2.7S4.7,5.8,5.8,6.9s2.8,1.4,4.1,0.5
							c0.5,0.2,3.2,1.4,3.4,4.3H2.9C3,11.2,3.3,9.3,4.7,8.4L4.5,8.2c-1.7,1.2-1.9,3.6-1.9,3.7v0.2h10.8h0.2
							C13.5,10.2,12.5,8.9,11.7,8.2z M8,7.7c-1.5,0-2.7-1.3-2.7-2.7S6.6,2.2,8,2.2s2.7,1.3,2.7,2.7S9.6,7.7,8,7.7z"/>
					</g>
				</g>
			</g>
		</g>
	</g>
</g>
</svg>
