<?xml version="1.0" encoding="utf-8"?>
<!-- Generator: Adobe Illustrator 23.1.0, SVG Export Plug-In . SVG Version: 6.00 Build 0)  -->
<svg version="1.1" xmlns="http://www.w3.org/2000/svg" xmlns:xlink="http://www.w3.org/1999/xlink" x="0px" y="0px"
	 viewBox="0 0 16 16" style="enable-background:new 0 0 16 16;" xml:space="preserve">
<style type="text/css">
	.st0{fill:#FFFFFF;}
</style>
<g id="Layer_1_1_">
	<circle class="st0" cx="8" cy="8" r="7.9"/>
</g>
<g id="Layer_2">
	<g>
		<title>vet-icon-nav</title>
		<g>
			<g id="vet-icon-nav_1_">
				<path d="M12.1,10.1c-0.7,0-1.4,0.5-1.5,1.3H8.1V9.7L10,6.9l0,0c1-0.8,1-2.1,1-2.2V0.9H9.3v0.8h0.4V1.3h0.9v3.4
					c0,0.1,0,2.5-2.7,2.6c-2.5,0-2.6-2.4-2.6-2.5V1.3h0.9v0.5h0.4V0.9H5v3.8C5,5.2,5.2,6.3,6.1,7h0l1.6,2.7v1.7H5.3
					c-0.6,0-1,0.2-1.3,0.6c-0.4,0.5-0.4,1.2-0.4,1.4c0,0,0,0,0,0c0,1.2,1.1,1.7,2.1,1.7h0.1c1,0,2.1-0.6,2.2-1.8v-1.6h2.6
					c0.1,0.8,0.8,1.4,1.6,1.3s1.4-0.8,1.3-1.6C13.4,10.6,12.8,10.1,12.1,10.1L12.1,10.1z M7.7,13.2c0,1-1,1.5-1.9,1.4
					c-0.8,0-1.7-0.5-1.8-1.4c0,0,0,0,0,0l0,0c0,0,0,0,0,0c0-0.2,0-0.7,0.3-1.1c0.2-0.3,0.6-0.4,1-0.4h2.4V13.2z M7.9,9.3L6.7,7.4
					c0.4,0.1,0.8,0.2,1.2,0.2c0.5,0,0.9-0.1,1.4-0.3L7.9,9.3z M12.1,12.6c-0.6,0-1.1-0.5-1.1-1.1c0-0.6,0.5-1.1,1.1-1.1
					c0.6,0,1.1,0.5,1.1,1.1c0,0,0,0,0,0C13.2,12.1,12.7,12.6,12.1,12.6L12.1,12.6z"/>
				<path d="M4,13.3C4,13.3,4,13.3,4,13.3L4,13.3C4,13.3,4,13.3,4,13.3z"/>
				<path d="M4.1,13.3L4.1,13.3C4,13.3,4,13.3,4.1,13.3L4.1,13.3z"/>
				<path d="M6.2,4.4C6,4.4,5.7,4.2,5.7,3.8C5.7,3.1,6.1,3,6.2,3s0.5,0.1,0.5,0.7C6.8,4.2,6.6,4.4,6.2,4.4z M6.2,3.4
					c-0.2,0-0.2,0.2-0.2,0.4C6.1,3.9,6.1,4,6.2,4c0.1,0,0.2,0,0.2-0.3C6.4,3.6,6.4,3.4,6.2,3.4z"/>
				<path d="M7.3,3.6c-0.3,0-0.5-0.2-0.5-0.6c0-0.7,0.4-0.7,0.5-0.7c0.1,0,0.5,0.1,0.5,0.7C7.9,3.3,7.7,3.6,7.3,3.6z M7.3,2.6
					c-0.2,0-0.2,0.2-0.2,0.4c0,0.2,0.1,0.3,0.2,0.3c0.1,0,0.2,0,0.2-0.3C7.5,2.8,7.5,2.6,7.3,2.6z"/>
				<path d="M8.6,3.6c-0.3,0-0.5-0.2-0.5-0.6c0-0.7,0.4-0.7,0.5-0.7c0.1,0,0.5,0.1,0.5,0.7C9.2,3.3,9,3.6,8.6,3.6z M8.6,2.6
					c-0.2,0-0.2,0.2-0.2,0.4c0,0.2,0.1,0.3,0.2,0.3c0.1,0,0.2,0,0.2-0.3C8.8,2.8,8.8,2.6,8.6,2.6z"/>
				<path d="M9.7,4.4c-0.3,0-0.5-0.2-0.5-0.6C9.2,3.1,9.6,3,9.7,3c0.1,0,0.5,0.1,0.5,0.7C10.3,4.2,10.1,4.4,9.7,4.4z M9.7,3.4
					c-0.2,0-0.2,0.2-0.2,0.4C9.5,3.9,9.6,4,9.7,4c0.1,0,0.2,0,0.2-0.3C9.9,3.6,9.9,3.4,9.7,3.4z"/>
				<path d="M8.2,6.4c-0.1,0-0.2,0-0.3,0C7.2,6.4,6.7,6.3,6.5,6C6.3,5.9,6.2,5.7,6.2,5.5c0-0.3,0-0.9,0.6-1.1c0.2,0,0.3-0.2,0.4-0.3
					C7.3,3.9,7.5,3.7,8,3.7c0.5,0,0.8,0.3,0.9,0.5C9,4.3,9,4.4,9.1,4.4c0.5,0.1,0.6,0.7,0.6,1c0,0.3-0.1,0.5-0.3,0.7
					C9.1,6.4,8.6,6.4,8.2,6.4z M8,6c0.2,0,0.9,0,1.2-0.2c0.1-0.1,0.2-0.3,0.2-0.4c0,0,0-0.6-0.3-0.6C8.8,4.7,8.7,4.5,8.6,4.4
					C8.5,4.2,8.3,4,8,4C7.7,4,7.6,4.1,7.5,4.3C7.4,4.5,7.2,4.7,6.9,4.7C6.5,4.9,6.6,5.4,6.6,5.5v0v0c0,0.1,0,0.2,0.1,0.3
					C6.9,5.9,7.2,6.1,8,6L8,6L8,6z"/>
			</g>
		</g>
	</g>
</g>
</svg>
